<svg xmlns="http://www.w3.org/2000/svg" xmlns:xlink="http://www.w3.org/1999/xlink" viewBox="0 0 19 15"><path d="M17,1a1,1,0,0,1,1,1V13a1,1,0,0,1-1,1H2a1,1,0,0,1-1-1V2A1,1,0,0,1,2,1H17m0-1H2A2,2,0,0,0,0,2V13a2,2,0,0,0,2,2H17a2,2,0,0,0,2-2V2a2,2,0,0,0-2-2" fill="currentColor"/><line x1="1.14" y1="1.22" x2="9.5" y2="7.63" fill="none" stroke="currentColor" stroke-linecap="round" stroke-linejoin="round"/><line x1="17.85" y1="1.29" x2="9.5" y2="7.63" fill="none" stroke="currentColor" stroke-linecap="round" stroke-linejoin="round"/><line x1="3" y1="9.5" x2="5.5" y2="9.5" fill="none" stroke="currentColor" stroke-linecap="round" stroke-linejoin="round"/><line x1="3" y1="11.5" x2="5.5" y2="11.5" fill="none" stroke="currentColor" stroke-linecap="round" stroke-linejoin="round"/></svg>