<svg width="18" height="21" viewBox="0 0 18 21" fill="none" xmlns="http://www.w3.org/2000/svg">
<path d="M17 17C17 18.1338 16.766 18.6522 16.5441 18.9027C16.3347 19.1392 15.9805 19.3121 15.2852 19.3671C14.5771 19.423 13.7019 19.3445 12.6022 19.2351C12.555 19.2305 12.5076 19.2257 12.4598 19.221C11.4263 19.1179 10.2436 19 9 19C7.7564 19 6.57372 19.1179 5.54022 19.221C5.49244 19.2257 5.44498 19.2305 5.39784 19.2351C4.2981 19.3445 3.42288 19.423 2.7148 19.3671C2.01945 19.3121 1.66529 19.1392 1.45589 18.9027C1.23404 18.6522 1 18.1338 1 17C1 12.5817 4.58172 9 9 9C13.4183 9 17 12.5817 17 17Z" stroke="currentColor" stroke-width="2"/>
<circle cx="9" cy="5" r="4" stroke="currentColor" stroke-width="2"/>
</svg>
