<svg xmlns="http://www.w3.org/2000/svg" xmlns:xlink="http://www.w3.org/1999/xlink" viewBox="0 0 16 20.49"><path d="M8.16,1a6.47,6.47,0,0,1,1.7.28A7.06,7.06,0,0,1,15,8.06c0,2.57-2.07,4.87-4.08,7.1A26,26,0,0,0,8,18.83a26,26,0,0,0-2.92-3.67C3.07,12.93,1,10.63,1,8.06A7.06,7.06,0,0,1,6.14,1.28,6.47,6.47,0,0,1,7.84,1h.32m0-1H7.84a7.57,7.57,0,0,0-2,.32A8,8,0,0,0,0,8.06c0,4.82,5.94,8.37,7.6,12.16a.43.43,0,0,0,.8,0C10.06,16.43,16,12.88,16,8.06A8,8,0,0,0,10.13.32a7.57,7.57,0,0,0-2-.32" fill="currentColor"/><path d="M8,5.23A2.75,2.75,0,1,1,5.25,8,2.75,2.75,0,0,1,8,5.23m0-1A3.75,3.75,0,1,0,11.75,8,3.74,3.74,0,0,0,8,4.23" fill="currentColor"/></svg>