<svg xmlns="http://www.w3.org/2000/svg" xmlns:xlink="http://www.w3.org/1999/xlink" width="60.15" height="50" viewBox="0 0 60.15 50"><defs><clipPath id="a"><rect width="60.15" height="50" fill="none"/></clipPath></defs><g clip-path="url(#a)"><path d="M59.73,14.82a4.63,4.63,0,0,0-4.2-2.8h-.21l-1.22.07A24.53,24.53,0,0,0,43,3.58,32.2,32.2,0,0,0,33,1.5q-1.12-.06-2.28-.06L29,1.47a26.93,26.93,0,0,0-4.93.64l-.77.19A16.71,16.71,0,0,0,14.83,0h-.52c-.45,0-.77,0-1,.06A3.55,3.55,0,0,0,12,.44,4.13,4.13,0,0,0,9.71,5.5l1.43,4.36c-.29.34-.55.69-.8,1a36.35,36.35,0,0,0-2.62,4.36C6.78,17,6.17,18.09,5.5,18.36l-.06,0-.17.06-.38.14c-1.67.63-5.6,2.1-4.78,6.18l.18.91c.69,3.53,1.16,5.76,1.47,6.69l.17.55a6.27,6.27,0,0,0,3,4.16,8.43,8.43,0,0,0,3.09,1c.34.07.83.16,1.05.22a3.26,3.26,0,0,0,.68.25c.8.18,1.44.27,2,.35a6,6,0,0,1,.87.16,8.71,8.71,0,0,1,1.62,2.42l.06.1A29.69,29.69,0,0,1,16,45.15l.34.86c.23.58.33.84.45,1.07A5.3,5.3,0,0,0,21.92,50h3.45c2.21,0,4.45-1.64,4.45-5.32V43.47h6.09v1.21c0,3.68,2.2,5.32,4.37,5.32h3.24a5.12,5.12,0,0,0,5-3c.11-.25.21-.53.44-1.14.07-.2.16-.42.24-.66a38.2,38.2,0,0,1,4.35-6.92A20.15,20.15,0,0,0,58.44,25.1a20.72,20.72,0,0,0-.41-4c.21-.26.45-.54.74-.85a5,5,0,0,0,1-5.4m-2.45,4.05c-.27.31-.53.61-.8.95l-.59.72.18.92a18.38,18.38,0,0,1-4,15.59,39.84,39.84,0,0,0-4.58,7.28l0,.1,0,.11-.25.66c-.2.54-.3.81-.37,1C46.36,47,45.63,48,43.52,48H40.28c-1.14,0-2.37-.87-2.37-3.32V41.47H27.82v3.21c0,2.08-.92,3.32-2.45,3.32H21.92c-2.19,0-3-1-3.39-1.82-.06-.13-.16-.37-.33-.81l0-.1L18,45l-.24-.61A30,30,0,0,0,16,40.53L16,40.46c-1.22-2.2-1.81-2.79-2.19-3.06l-.18-.13-.2-.09A5.4,5.4,0,0,0,12,36.89c-.51-.07-1.08-.16-1.81-.33a.79.79,0,0,1-.23-.08l-.17-.08-.18,0a12,12,0,0,0-1.23-.26A7.2,7.2,0,0,1,6,35.4c-1.5-1-1.67-1.46-2.2-3.1l-.19-.56c-.3-.91-.86-3.69-1.4-6.45l-.18-.91c-.35-1.76.6-2.82,3.53-3.92L6,20.32l.15-.06.1,0c1.39-.55,2.17-2,3.24-4A35.42,35.42,0,0,1,12,12.07c.24-.33.48-.65.72-.94l.7-.85-.34-1L11.61,4.88a2.12,2.12,0,0,1,1.18-2.6l.08,0,.07,0a1.67,1.67,0,0,1,.58-.16l.83,0h.48A14.81,14.81,0,0,1,22.3,4l.71.42.8-.2.71-.18a24.63,24.63,0,0,1,4.57-.59l1.6,0c.71,0,1.44,0,2.17.06a30.42,30.42,0,0,1,9.36,1.94,22.69,22.69,0,0,1,10.26,7.82l.64.88,1.09-.05L55.4,14h.15a2.66,2.66,0,0,1,2.36,1.61,3,3,0,0,1-.63,3.24" fill="currentColor"/><path d="M19.47,17.93a3.58,3.58,0,0,0-3.14,1.41,7.44,7.44,0,0,0-1,4.3v2.23a7.14,7.14,0,0,0,1,4.16,3.58,3.58,0,0,0,3.11,1.39A3.56,3.56,0,0,0,22.62,30a7.69,7.69,0,0,0,1-4.36V23.48a7.2,7.2,0,0,0-1-4.19,3.64,3.64,0,0,0-3.12-1.36m2.15,7.71A5.68,5.68,0,0,1,21,28.85c-.12.17-.4.57-1.49.57S18.12,29,18,28.86a5.25,5.25,0,0,1-.66-3V23.64A5.47,5.47,0,0,1,18,20.5c.12-.17.4-.57,1.51-.57s1.4.4,1.51.55a5.23,5.23,0,0,1,.64,3Z" fill="currentColor"/><path d="M32.67,17.93a3.58,3.58,0,0,0-3.14,1.41,7.44,7.44,0,0,0-1,4.3v2.23a7.14,7.14,0,0,0,1,4.16,3.58,3.58,0,0,0,3.11,1.39A3.57,3.57,0,0,0,35.82,30a7.69,7.69,0,0,0,1-4.36V23.48a7.2,7.2,0,0,0-1-4.19,3.64,3.64,0,0,0-3.12-1.36m2.15,7.71a5.68,5.68,0,0,1-.64,3.21c-.12.17-.4.57-1.49.57s-1.37-.39-1.5-.56a5.25,5.25,0,0,1-.66-3V23.64a5.47,5.47,0,0,1,.63-3.14c.12-.17.4-.57,1.51-.57s1.4.4,1.51.55a5.23,5.23,0,0,1,.64,3Z" fill="currentColor"/><path d="M42.67,17.93a3.58,3.58,0,0,0-3.14,1.41,7.44,7.44,0,0,0-1,4.3v2.23a7.14,7.14,0,0,0,1,4.16,3.58,3.58,0,0,0,3.11,1.39A3.57,3.57,0,0,0,45.82,30a7.69,7.69,0,0,0,1-4.36V23.48a7.2,7.2,0,0,0-1-4.19,3.64,3.64,0,0,0-3.12-1.36m2.15,7.71a5.68,5.68,0,0,1-.64,3.21c-.12.17-.4.57-1.49.57s-1.37-.39-1.5-.56a5.25,5.25,0,0,1-.66-3V23.64a5.47,5.47,0,0,1,.63-3.14c.12-.17.4-.57,1.51-.57s1.4.4,1.51.55a5.23,5.23,0,0,1,.64,3Z" fill="currentColor"/><path d="M26.07,29.42a1,1,0,0,0,0,2,1,1,0,0,0,0-2" fill="currentColor"/></g></svg>