<svg xmlns="http://www.w3.org/2000/svg" xmlns:xlink="http://www.w3.org/1999/xlink" width="67.48" height="50.49" viewBox="0 0 67.48 50.49"><defs><clipPath id="a"><rect width="67.48" height="50.49" fill="none"/></clipPath></defs><g clip-path="url(#a)"><path d="M35.76.49h-4A38.62,38.62,0,0,0,20.26,2.84C19.66,1.53,19.13.49,19.13.49S18.27,2.2,17.48,4a35.26,35.26,0,0,0-5.59,3.3C10.4,3.73,8.51,0,8.51,0S3.34,10.2,3.34,13.06A5.13,5.13,0,0,0,4,15.58,25.94,25.94,0,0,0,0,27.17a12.08,12.08,0,0,1,6.91-1.93c4.34,0,8,1.82,8.77,4.23H16c.84-2.39,4.44-4.2,8.76-4.2a12.1,12.1,0,0,1,6.92,1.94h1V44.28a4.2,4.2,0,0,1-8.39.37h-2a6.21,6.21,0,0,0,12.41-.37V27.19h1a12.1,12.1,0,0,1,6.92-1.94c4.34,0,8,1.82,8.77,4.23h.36c.84-2.39,4.44-4.2,8.76-4.2a12.16,12.16,0,0,1,6.91,1.93C66.18,12.8,52.64,1.35,35.76.49M20,7.75a.87.87,0,0,1-1.74,0A11,11,0,0,1,19,5.53c0-.1.08-.19.12-.29,0,.07.05.13.08.19A11.38,11.38,0,0,1,20,7.75M5.34,13.06c0-1.1,1.44-4.74,3.17-8.47.64,1.39,1.24,2.76,1.74,4,.29.72.55,1.39.77,2a9.71,9.71,0,0,1,.66,2.49,3.17,3.17,0,0,1-6.29.55,3.31,3.31,0,0,1,0-.55m46.3,13.22a13.22,13.22,0,0,0-9-3,14.55,14.55,0,0,0-7.53,2l-2.83,0a14.54,14.54,0,0,0-7.52-1.94,13.32,13.32,0,0,0-8.93,3,13.22,13.22,0,0,0-9-3,16.31,16.31,0,0,0-4.31.57,24.07,24.07,0,0,1,2.81-6.63,5.15,5.15,0,0,0,8.27-4.12,13.34,13.34,0,0,0-1-3.8,31.12,31.12,0,0,1,3.77-2.43,4,4,0,0,0-.17.92,2.87,2.87,0,0,0,5.74,0,10.62,10.62,0,0,0-.93-3,36.31,36.31,0,0,1,10.7-2.21h3.94C50.07,3.24,62,12.16,64.89,23.85a16,16,0,0,0-4.32-.58,13.3,13.3,0,0,0-8.93,3" fill="currentColor"/></g></svg>