<svg xmlns="http://www.w3.org/2000/svg" xmlns:xlink="http://www.w3.org/1999/xlink" width="57.39" height="50.01" viewBox="0 0 57.39 50.01"><defs><clipPath id="a"><rect width="57.39" height="50.01" fill="none"/></clipPath></defs><g clip-path="url(#a)"><path d="M11.38,8.71a1,1,0,0,0-1,1V26.54a1,1,0,0,0,2,0V9.71a1,1,0,0,0-1-1" fill="currentColor"/><path d="M22.92,8.71a1,1,0,0,0-1,1V26.54a1,1,0,0,0,2,0V9.71a1,1,0,0,0-1-1" fill="currentColor"/><path d="M34.47,8.71a1,1,0,0,0-1,1V26.54a1,1,0,0,0,2,0V9.71a1,1,0,0,0-1-1" fill="currentColor"/><path d="M46,8.71a1,1,0,0,0-1,1V26.54a1,1,0,0,0,2,0V9.71a1,1,0,0,0-1-1" fill="currentColor"/><path d="M40.59,34.27h0c-1.54,0-1.33,2.78-1.07,4,.42,2,1,3.9,1,3.9a.11.11,0,0,0,.08.08h0a.08.08,0,0,0,.07-.08s.58-1.91,1-3.9c.26-1.24.47-4-1.07-4" fill="currentColor"/><path d="M40.59,43.16a1,1,0,1,0,1,1,1,1,0,0,0-1-1" fill="currentColor"/><path d="M53.27,0H4.12A4.13,4.13,0,0,0,0,4.12v28a4.13,4.13,0,0,0,4.12,4.12H32.85L26.16,46.57A2.65,2.65,0,0,0,25.65,49a1.68,1.68,0,0,0,1.29,1l.25,0H54l.3-.06a1.64,1.64,0,0,0,1.24-1A2.65,2.65,0,0,0,55,46.57l-6.7-10.32h5a4.12,4.12,0,0,0,4.12-4.12v-28A4.12,4.12,0,0,0,53.27,0m.08,47.68.19.33H27.63a4,4,0,0,1,.21-.35l7.4-11.41,1.3-2,4-6.24,4.05,6.24,1.3,2Zm2-15.55a2.12,2.12,0,0,1-2.12,2.12H47l-5.21-8a1.47,1.47,0,0,0-1.13-.72h-.2a1.46,1.46,0,0,0-1.12.72l-5.21,8h-30A2.12,2.12,0,0,1,2,32.13v-28A2.12,2.12,0,0,1,4.12,2H53.27a2.12,2.12,0,0,1,2.12,2.12Z" fill="currentColor"/></g></svg>