<svg xmlns="http://www.w3.org/2000/svg" xmlns:xlink="http://www.w3.org/1999/xlink" width="60" height="50" viewBox="0 0 60 50"><defs><clipPath id="a"><rect width="60" height="50" fill="none"/></clipPath></defs><g clip-path="url(#a)"><path d="M57.5,15.13H42.77a2.5,2.5,0,0,0-2.5,2.5V24H10.87V19.73h6.36a2.5,2.5,0,0,0,2.5-2.5V2.5A2.5,2.5,0,0,0,17.23,0H2.5A2.5,2.5,0,0,0,0,2.5V17.23a2.5,2.5,0,0,0,2.5,2.5H8.87V30.27H2.5A2.5,2.5,0,0,0,0,32.77V47.5A2.5,2.5,0,0,0,2.5,50H17.23a2.5,2.5,0,0,0,2.5-2.5V32.77a2.5,2.5,0,0,0-2.5-2.5H10.87V26h29.4v6.37a2.5,2.5,0,0,0,2.5,2.5H57.5a2.5,2.5,0,0,0,2.5-2.5V17.63a2.5,2.5,0,0,0-2.5-2.5M2,17.23V2.5A.5.5,0,0,1,2.5,2H17.23a.5.5,0,0,1,.5.5V17.23a.5.5,0,0,1-.5.5H2.5a.5.5,0,0,1-.5-.5M17.73,32.77V47.5a.5.5,0,0,1-.5.5H2.5a.5.5,0,0,1-.5-.5V32.77a.5.5,0,0,1,.5-.5H17.23a.5.5,0,0,1,.5.5M58,32.37a.5.5,0,0,1-.5.5H42.77a.5.5,0,0,1-.5-.5V17.63a.5.5,0,0,1,.5-.5H57.5a.5.5,0,0,1,.5.5Z" fill="currentColor"/></g></svg>