<svg xmlns="http://www.w3.org/2000/svg" xmlns:xlink="http://www.w3.org/1999/xlink" width="57.39" height="50" viewBox="0 0 57.39 50"><defs><clipPath id="a"><rect width="57.39" height="50" fill="none"/></clipPath></defs><g clip-path="url(#a)"><path d="M50.68,6.58H41A6.7,6.7,0,0,0,34.31,0H23.08a6.7,6.7,0,0,0-6.7,6.58H6.71A6.7,6.7,0,0,0,0,13.28v30A6.7,6.7,0,0,0,6.71,50h44a6.7,6.7,0,0,0,6.71-6.71v-30a6.7,6.7,0,0,0-6.71-6.7M23.08,2H34.31A4.7,4.7,0,0,1,39,6.58H18.38A4.71,4.71,0,0,1,23.08,2M6.71,8.58h44a4.71,4.71,0,0,1,4.71,4.7v9H2v-9a4.71,4.71,0,0,1,4.71-4.7M24,24.29H33.4v2.28a4.71,4.71,0,0,1-9.41,0ZM50.68,48h-44A4.71,4.71,0,0,1,2,43.29v-19H22v2.28a6.71,6.71,0,0,0,13.41,0V24.29h20v19A4.71,4.71,0,0,1,50.68,48" fill="currentColor"/></g></svg>