<svg xmlns="http://www.w3.org/2000/svg" xmlns:xlink="http://www.w3.org/1999/xlink" width="50" height="50" viewBox="0 0 50 50"><defs><clipPath id="a"><rect width="50" height="50" fill="none"/></clipPath></defs><g clip-path="url(#a)"><path d="M25,2A23,23,0,1,1,2,25,23,23,0,0,1,25,2m0-2A25,25,0,1,0,50,25,25,25,0,0,0,25,0" fill="currentColor"/><path d="M8.63,20.62A16.73,16.73,0,0,0,20.4,41.15H22l.11,0h.21a16.65,16.65,0,0,0,9.47-1.38,1,1,0,0,0,.49-1.33A1,1,0,0,0,31,38.37a14.74,14.74,0,1,1-2.35-27.59,15,15,0,0,1,2.38.86,1,1,0,0,0,1.33-.48l.06-.16a1,1,0,0,0-.54-1.17A18.3,18.3,0,0,0,30,9.11h-.88A16.73,16.73,0,0,0,8.63,20.62" fill="currentColor"/></g></svg>