<svg xmlns="http://www.w3.org/2000/svg" xmlns:xlink="http://www.w3.org/1999/xlink" width="72.25" height="50" viewBox="0 0 72.25 50"><defs><clipPath id="a"><rect width="72.25" height="50" fill="none"/></clipPath></defs><g clip-path="url(#a)"><path d="M64.61,24.65a7.91,7.91,0,1,0-8-13.66V0H15.52V10.93A7.91,7.91,0,1,0,7.64,24.65,10.53,10.53,0,0,0,0,34.44V50H23.11V44.54a57.41,57.41,0,0,0,12.25,5.24l.71.22.71-.22a56.75,56.75,0,0,0,12.36-5.31V50H72.25V34.44a10.53,10.53,0,0,0-7.64-9.79M60.7,11.86a5.92,5.92,0,1,1-4.07,10.19V13.49a5.88,5.88,0,0,1,4.07-1.63M5.64,17.77a5.91,5.91,0,0,1,9.88-4.38v8.76a5.9,5.9,0,0,1-9.88-4.38M21.11,48H2V34.44C2,29.8,6.29,26,11.55,26a10.56,10.56,0,0,1,4,.77v6c0,4.12,1.73,7.46,5.59,10.37Zm15.06-.13-.1,0-.09,0C30,46,25.88,44,23.11,42.14a19.65,19.65,0,0,1-2-1.55,9.69,9.69,0,0,1-3.59-7.79V2H54.63V32.8a9.67,9.67,0,0,1-3.49,7.68,17.47,17.47,0,0,1-2,1.59c-2.77,1.91-6.88,3.85-13,5.8M70.25,48H51.14V43.09c3.78-2.9,5.49-6.21,5.49-10.29v-6A10.63,10.63,0,0,1,60.7,26c5.27,0,9.55,3.78,9.55,8.42Z" fill="currentColor"/><path d="M46.72,16.93a1,1,0,0,0-.7.29l-10,10-5.41-5.41a1,1,0,0,0-.71-.29,1,1,0,0,0-.71.29,1,1,0,0,0,0,1.42l6.12,6.11a1,1,0,0,0,1.41,0L47.43,18.63a1,1,0,0,0,0-1.41,1,1,0,0,0-.71-.29" fill="currentColor"/></g></svg>