<svg xmlns="http://www.w3.org/2000/svg" xmlns:xlink="http://www.w3.org/1999/xlink" width="49.63" height="50" viewBox="0 0 49.63 50"><defs><clipPath id="a"><rect width="49.63" height="50" fill="none"/></clipPath></defs><g clip-path="url(#a)"><path d="M26.65,32a7,7,0,1,0,7,7,7,7,0,0,0-7-7m0,12a5,5,0,1,1,5-5,5,5,0,0,1-5,5" fill="currentColor"/><path d="M26.65,35.59A3.43,3.43,0,1,0,30.08,39a3.43,3.43,0,0,0-3.43-3.43m0,4.86A1.43,1.43,0,1,1,28.08,39a1.44,1.44,0,0,1-1.43,1.43" fill="currentColor"/><path d="M45.51,0H4.12A4.13,4.13,0,0,0,0,4.12V45.88A4.13,4.13,0,0,0,4.12,50H45.51a4.12,4.12,0,0,0,4.12-4.12V4.12A4.12,4.12,0,0,0,45.51,0M16.12,48h-12A2.12,2.12,0,0,1,2,45.88V4.12A2.12,2.12,0,0,1,4.12,2H33.51a2.12,2.12,0,0,1,2.12,2.12V45.88A2.12,2.12,0,0,1,33.51,48Zm31.51-2.12A2.12,2.12,0,0,1,45.51,48H37a4.12,4.12,0,0,0,.6-2.12V4.12A4.12,4.12,0,0,0,37,2h8.48a2.12,2.12,0,0,1,2.12,2.12Z" fill="currentColor"/><path d="M8.41,9.75H29.24a1,1,0,0,0,0-2H8.41a1,1,0,0,0,0,2" fill="currentColor"/><path d="M8.41,16.42H19.24a1,1,0,0,0,0-2H8.41a1,1,0,0,0,0,2" fill="currentColor"/><path d="M8.41,23.08H24.24a1,1,0,0,0,0-2H8.41a1,1,0,0,0,0,2" fill="currentColor"/><path d="M20.24,28.75a1,1,0,0,0-1-1H8.41a1,1,0,1,0,0,2H19.24a1,1,0,0,0,1-1" fill="currentColor"/></g></svg>