<svg xmlns="http://www.w3.org/2000/svg" xmlns:xlink="http://www.w3.org/1999/xlink" width="66.48" height="50" viewBox="0 0 66.48 50"><defs><clipPath id="a"><rect width="66.48" height="50" fill="none"/></clipPath></defs><g clip-path="url(#a)"><path d="M33.24,28.44A8.53,8.53,0,1,0,41.77,37a8.53,8.53,0,0,0-8.53-8.53m0,15.06A6.53,6.53,0,1,1,39.77,37a6.54,6.54,0,0,1-6.53,6.53" fill="currentColor"/><path d="M15.92,15.58a1,1,0,0,0-1,1V27.42a1,1,0,0,0,2,0V16.58a1,1,0,0,0-1-1" fill="currentColor"/><path d="M27.47,11.28a1,1,0,0,0-1,1v7.83a1,1,0,0,0,2,0V12.28a1,1,0,0,0-1-1" fill="currentColor"/><path d="M39,11.28a1,1,0,0,0-1,1v7.83a1,1,0,0,0,2,0V12.28a1,1,0,0,0-1-1" fill="currentColor"/><path d="M50.55,15.58a1,1,0,0,0-1,1V27.42a1,1,0,0,0,2,0V16.58a1,1,0,0,0-1-1" fill="currentColor"/><path d="M62.32,33.62v-.38A29.1,29.1,0,0,0,41.46,5.34,6.23,6.23,0,0,0,35.32,0H31.16A6.23,6.23,0,0,0,25,5.34,29.13,29.13,0,0,0,4.15,33.24v.38A6.22,6.22,0,0,0,6.23,45.7H23.59a13,13,0,0,0,19.3,0H60.24a6.21,6.21,0,0,0,2.08-12.08M33.24,48a11,11,0,0,1-6.72-2.3,11.14,11.14,0,0,1-2-2A10.92,10.92,0,0,1,22.2,37,11,11,0,1,1,42,43.7a11.19,11.19,0,0,1-2,2A10.93,10.93,0,0,1,33.24,48m27-4.3H44.38a13,13,0,1,0-22.28,0H6.24a4.21,4.21,0,0,1-1.41-8.19L6.15,35V33.24a27.27,27.27,0,0,1,19.44-26l1.22-.36L27,5.63A4.2,4.2,0,0,1,31.16,2h4.15a4.2,4.2,0,0,1,4.17,3.63l.18,1.27,1.23.36a27.25,27.25,0,0,1,19.43,26V35l1.33.48a4.21,4.21,0,0,1-1.41,8.19" fill="currentColor"/></g></svg>