<svg xmlns="http://www.w3.org/2000/svg" xmlns:xlink="http://www.w3.org/1999/xlink" width="57.39" height="50.01" viewBox="0 0 57.39 50.01"><defs><clipPath id="a"><rect width="57.39" height="50.01" fill="none"/></clipPath></defs><g clip-path="url(#a)"><path d="M50.68,3.31h-21V1a1,1,0,0,0-2,0V3.31h-21A6.7,6.7,0,0,0,0,10V40a6.7,6.7,0,0,0,6.71,6.71h21V49a1,1,0,0,0,2,0V46.73h21A6.7,6.7,0,0,0,57.39,40V10a6.7,6.7,0,0,0-6.71-6.71M55.39,40a4.71,4.71,0,0,1-4.71,4.71h-21v-.86a1,1,0,0,0-2,0v.86h-21A4.71,4.71,0,0,1,2,40V10A4.71,4.71,0,0,1,6.71,5.31h21v.83a1,1,0,0,0,2,0V5.31h21A4.71,4.71,0,0,1,55.39,10Z" fill="currentColor"/><path d="M28.7,14.29a1,1,0,0,0-1,1v5.14a1,1,0,0,0,2,0V15.29a1,1,0,0,0-1-1" fill="currentColor"/><path d="M28.7,28.58a1,1,0,0,0-1,1v5.14a1,1,0,0,0,2,0V29.58a1,1,0,0,0-1-1" fill="currentColor"/><path d="M17.83,9.31H8.2A2.21,2.21,0,0,0,6,11.51v9.63a2.21,2.21,0,0,0,2.2,2.21h9.63A2.21,2.21,0,0,0,20,21.14V11.51a2.21,2.21,0,0,0-2.21-2.2M18,21.14a.21.21,0,0,1-.21.21H8.2a.2.2,0,0,1-.2-.21V11.51a.2.2,0,0,1,.2-.2h9.63a.2.2,0,0,1,.21.2Z" fill="currentColor"/><path d="M49.19,26.69H39.56a2.21,2.21,0,0,0-2.21,2.21v9.63a2.21,2.21,0,0,0,2.21,2.2h9.63a2.21,2.21,0,0,0,2.2-2.2V28.9a2.21,2.21,0,0,0-2.2-2.21m.2,11.84a.2.2,0,0,1-.2.2H39.56a.21.21,0,0,1-.21-.2V28.9a.22.22,0,0,1,.21-.21h9.63a.21.21,0,0,1,.2.21Z" fill="currentColor"/></g></svg>