<svg xmlns="http://www.w3.org/2000/svg" xmlns:xlink="http://www.w3.org/1999/xlink" width="61.6" height="50" viewBox="0 0 61.6 50"><defs><clipPath id="a"><rect width="61.6" height="50" fill="none"/></clipPath></defs><g clip-path="url(#a)"><path d="M61.6,26.06,53.38,9.61a3.82,3.82,0,0,0,.79-2.32,3.86,3.86,0,0,0-7.59-1H38a7.29,7.29,0,0,0-14.44,0H15a3.86,3.86,0,1,0-6.8,3.32L0,26.06H0v1.07a11.3,11.3,0,0,0,22.6,0V26.06h0L14.38,9.61A3.86,3.86,0,0,0,15,8.29h8.56a7.29,7.29,0,0,0,6.22,6.22V41.34H28.16A8.66,8.66,0,0,0,19.5,50H42.1a8.66,8.66,0,0,0-8.66-8.66H31.8V14.51A7.29,7.29,0,0,0,38,8.29h8.56a3.86,3.86,0,0,0,.64,1.32L39,26.06h0v1.07a11.3,11.3,0,0,0,22.6,0V26.06ZM39.79,48h-18a6.67,6.67,0,0,1,6.35-4.66h5.28A6.67,6.67,0,0,1,39.79,48M50.3,5.43a1.87,1.87,0,1,1-1.87,1.86A1.87,1.87,0,0,1,50.3,5.43m-39,0A1.87,1.87,0,1,1,9.43,7.29,1.87,1.87,0,0,1,11.3,5.43m0,31a9.31,9.31,0,0,1-9.25-8.36h18.5a9.31,9.31,0,0,1-9.25,8.36M2.24,26.06,9.82,10.87a4.06,4.06,0,0,0,1.48.29,4,4,0,0,0,1.47-.29l7.59,15.19ZM30.8,12.59a5.3,5.3,0,1,1,5.29-5.3,5.31,5.31,0,0,1-5.29,5.3m18-1.72a4.06,4.06,0,0,0,1.48.29,4,4,0,0,0,1.47-.29l7.59,15.19H41.24ZM50.3,36.42a9.31,9.31,0,0,1-9.25-8.36h18.5a9.31,9.31,0,0,1-9.25,8.36" fill="currentColor"/></g></svg>