<svg xmlns="http://www.w3.org/2000/svg" xmlns:xlink="http://www.w3.org/1999/xlink" width="69.62" height="50" viewBox="0 0 69.62 50"><defs><clipPath id="a"><rect width="69.62" height="50" fill="none"/></clipPath></defs><g clip-path="url(#a)"><path d="M62,24.64a7.92,7.92,0,1,0-7.83,0,12.09,12.09,0,0,0-3,1.47,13.8,13.8,0,0,0-8.61-7.69,9.86,9.86,0,1,0-9.75,0A14.48,14.48,0,0,0,26,23a14.46,14.46,0,0,0-6.76-4.57,9.86,9.86,0,1,0-9.74,0C4,20.22,0,25,0,30.62V50H69.62V34.44c0-4.52-3.19-8.35-7.64-9.8m-9.83-6.88a5.92,5.92,0,1,1,5.91,5.92,5.92,5.92,0,0,1-5.91-5.92M29.79,9.86a7.86,7.86,0,1,1,8.63,7.82c-.26,0-.51,0-.77,0s-.52,0-.78,0a7.87,7.87,0,0,1-7.08-7.82m-23.26,0a7.86,7.86,0,1,1,8.63,7.82c-.25,0-.51,0-.77,0s-.51,0-.77,0A7.88,7.88,0,0,1,6.53,9.86M25.25,48H2V30.62C2,24.8,7.14,20,13.61,19.68q.39,0,.78,0t.78,0a12.73,12.73,0,0,1,9.66,5A10.7,10.7,0,0,1,26,26.86a9.75,9.75,0,0,1,.76,3.76V48Zm2-23.28a12.73,12.73,0,0,1,9.66-5c.26,0,.51,0,.78,0s.52,0,.78,0c5.24.29,9.61,3.47,11.08,7.77A9.9,9.9,0,0,1,50,29.94c0,.23,0,.45,0,.68V48H28.78V30.62a12,12,0,0,0-1.57-5.9M67.62,48H52V30.62a11.54,11.54,0,0,0-.28-2.5A10.31,10.31,0,0,1,58.06,26c5.27,0,9.56,3.78,9.56,8.43Z" fill="currentColor"/></g></svg>