<svg xmlns="http://www.w3.org/2000/svg" xmlns:xlink="http://www.w3.org/1999/xlink" width="68.4" height="50" viewBox="0 0 68.4 50"><defs><clipPath id="a"><rect width="68.4" height="50" fill="none"/></clipPath></defs><g clip-path="url(#a)"><path d="M55.26,12.78h-.07a16.23,16.23,0,0,0-31.76.14A13,13,0,0,0,8.61,23.65a8.49,8.49,0,0,0-.88,0,7.73,7.73,0,0,0,0,15.46h20L21.48,50,33.64,39.06H55.26a13.14,13.14,0,1,0,0-26.28M29.36,40.22,30,39.06l1.14-2,3-5.24,1.7-3H27.93L35,16.4h9l-4.75,7.92-1.81,3h6.17L32.87,37.06l-2.22,2Zm25.9-3.16H35.86l13-11.7H41l6.57-11H33.85L24.49,30.83h7.92l-3.55,6.23H7.73a5.73,5.73,0,0,1,0-11.46,5.4,5.4,0,0,1,.66,0l1.87.22L10.58,24a11.11,11.11,0,0,1,11-9.22,10.82,10.82,0,0,1,1.6.13l1.87.27.38-1.84a14.23,14.23,0,0,1,27.84-.13l.35,1.58h1.73a11.14,11.14,0,0,1-.05,22.28" fill="currentColor"/></g></svg>