<svg xmlns="http://www.w3.org/2000/svg" xmlns:xlink="http://www.w3.org/1999/xlink" width="61" height="50" viewBox="0 0 61 50"><defs><clipPath id="a"><rect width="61" height="50" fill="none"/></clipPath></defs><g clip-path="url(#a)"><path d="M36,0a25.54,25.54,0,0,0-5.5.61A25.54,25.54,0,0,0,25,0a25,25,0,0,0,0,50,25.54,25.54,0,0,0,5.5-.61A25.54,25.54,0,0,0,36,50,25,25,0,0,0,36,0M26.13,48c-.38,0-.75,0-1.13,0A23,23,0,0,1,25,2c.38,0,.75,0,1.13,0a22.47,22.47,0,0,1,4.37.64,23,23,0,0,1,0,44.66,22.47,22.47,0,0,1-4.37.64M36,48c-.38,0-.75,0-1.13,0A25,25,0,0,0,34.87,2c.38,0,.75,0,1.13,0a23,23,0,0,1,0,46" fill="currentColor"/><path d="M22.88,17.41a4.94,4.94,0,1,0-4.94,4.94,4.94,4.94,0,0,0,4.94-4.94m-7.88,0a2.94,2.94,0,1,1,2.94,2.94A2.94,2.94,0,0,1,15,17.41" fill="currentColor"/><path d="M37,32.59a4.94,4.94,0,1,0-4.94,4.94A4.94,4.94,0,0,0,37,32.59m-7.88,0a2.94,2.94,0,1,1,2.94,2.94,2.94,2.94,0,0,1-2.94-2.94" fill="currentColor"/><path d="M32.59,14.66a1,1,0,0,0-1.4.22l-14,19.06a1,1,0,0,0,1.62,1.18l14-19.06a1,1,0,0,0-.21-1.4" fill="currentColor"/></g></svg>