<svg xmlns="http://www.w3.org/2000/svg" xmlns:xlink="http://www.w3.org/1999/xlink" width="61.67" height="49.98" viewBox="0 0 61.67 49.98"><defs><clipPath id="a"><rect width="61.67" height="49.98" fill="none"/></clipPath></defs><g clip-path="url(#a)"><path d="M56.06,45.27A3.6,3.6,0,0,1,59.55,48H28.43a3.62,3.62,0,0,1,3.5-2.71H56.06m0-2H31.93a5.61,5.61,0,0,0-5.61,5.61V50H61.67v-1.1a5.61,5.61,0,0,0-5.61-5.61" fill="currentColor"/><path d="M23.78,22l1.72,1.72L5.24,44.89a1.88,1.88,0,0,1-1.36.58,1.9,1.9,0,0,1-1.33-.55,1.88,1.88,0,0,1,0-2.69L23.78,22m0-2.8L1.2,40.78a3.88,3.88,0,1,0,5.48,5.49L28.3,23.66Z" fill="currentColor"/><path d="M26.33,7,40.49,21.14,33.14,28.5,19,14.33Zm0-2.83L16.14,14.33l17,17L43.32,21.14Z" fill="currentColor"/><path d="M24.76,2a1.11,1.11,0,0,1,.79.33l.51.51a1.11,1.11,0,0,1,0,1.58l-9.65,9.65a1.1,1.1,0,0,1-.79.32,1.12,1.12,0,0,1-.79-.32l-.51-.52a1.12,1.12,0,0,1,0-1.57L24,2.33A1.11,1.11,0,0,1,24.76,2m0-2a3.07,3.07,0,0,0-2.2.91l-9.65,9.65a3.11,3.11,0,0,0,0,4.41l.51.51a3.1,3.1,0,0,0,2.2.91,3.07,3.07,0,0,0,2.2-.91l9.66-9.65a3.12,3.12,0,0,0,0-4.4L27,.91A3.09,3.09,0,0,0,24.76,0" fill="currentColor"/><path d="M43.84,21.08a1.11,1.11,0,0,1,.79.33l.51.51a1.11,1.11,0,0,1,0,1.58l-9.65,9.65a1.1,1.1,0,0,1-1.57,0l-.52-.52a1.12,1.12,0,0,1,0-1.57l9.65-9.65a1.11,1.11,0,0,1,.79-.33m0-2a3.13,3.13,0,0,0-2.2.91L32,29.64a3.11,3.11,0,0,0,0,4.41l.51.51a3.1,3.1,0,0,0,4.41,0l9.65-9.65a3.12,3.12,0,0,0,0-4.4L46,20a3.13,3.13,0,0,0-2.2-.91" fill="currentColor"/></g></svg>