<svg xmlns="http://www.w3.org/2000/svg" xmlns:xlink="http://www.w3.org/1999/xlink" width="80.26" height="50" viewBox="0 0 80.26 50"><defs><clipPath id="a"><rect width="80.26" height="50" fill="none"/></clipPath></defs><g clip-path="url(#a)"><path d="M46,17.22l-10,10-5.41-5.41a1,1,0,0,0-1.42,0,1,1,0,0,0,0,1.42l6.12,6.11a1,1,0,0,0,1.41,0L47.43,18.63A1,1,0,1,0,46,17.22" fill="currentColor"/><path d="M63.12,15.71A17.07,17.07,0,0,0,56.63,17V0H15.52V10.93A7.91,7.91,0,1,0,7.64,24.65,10.53,10.53,0,0,0,0,34.44V50H23.11V44.54a57.3,57.3,0,0,0,12.26,5.24l.7.22.71-.22A52.78,52.78,0,0,0,50,43.9,17.14,17.14,0,1,0,63.12,15.71M5.64,17.77a5.91,5.91,0,0,1,9.88-4.38v8.76a5.9,5.9,0,0,1-9.88-4.38M21.11,48H2V34.44C2,29.8,6.29,26,11.55,26a10.56,10.56,0,0,1,4,.77v6c0,4.12,1.73,7.46,5.59,10.37Zm27.7-5.71a51.14,51.14,0,0,1-12.64,5.58l-.1,0-.09,0C30,46,25.88,44,23.11,42.14a19.65,19.65,0,0,1-2-1.55,9.69,9.69,0,0,1-3.59-7.79V2H54.63V32.8c0,2.67-.71,5.45-4.2,8.3a19,19,0,0,1-1.62,1.19M63.12,48a15.11,15.11,0,0,1-11.49-5.3,12.56,12.56,0,0,0,4.7-7.13h2.93v2H56.68a1,1,0,0,0,0,2h2.58v3a1,1,0,0,0,2,0v-3h2.59a1,1,0,0,0,0-2H61.26v-2h4.06a6.71,6.71,0,1,0,0-13.42H59.26V33.57H56.59c0-.26,0-.51,0-.77V19.19A15.11,15.11,0,0,1,78.26,32.85,15.16,15.16,0,0,1,63.12,48M61.26,33.57V24.15h4.06a4.71,4.71,0,1,1,0,9.42Z" fill="currentColor"/></g></svg>