<svg xmlns="http://www.w3.org/2000/svg" xmlns:xlink="http://www.w3.org/1999/xlink" viewBox="0 0 30.02 18"><path d="M16,18c1,0,1-1.44,1-2a2.15,2.15,0,0,1,2-2c1,0,2.71,1.72,4,3,1,1,1,1,2,1h3a2,2,0,0,0,2-2c0-.62-.68-1.68-3-4-2-2-3-1,0-5,1.85-2.46,3.19-4.68,3-5.32S24.63.09,24,1a36.72,36.72,0,0,0-3,5c-1,2-1.1,3-2,3s-1-1.94-1-3c0-3.31.48-5.64-1-6H14a5.81,5.81,0,0,0-3,1S9.79,2,10,2s2-.42,2,1V5s0,4-1,4S8,5,6,2C5.25.82,5,1,4,1S2,1,1,1s-1.13.64-1,1c2,5,3.44,8.14,7.23,12.09,3.49,3.63,5.81,3.82,7.76,3.9.5,0,0,0,1,0" fill="currentColor"/></svg>