<svg xmlns="http://www.w3.org/2000/svg" viewBox="0 0 31.85 31.85"><polygon points="22.85 0 22.85 1 30.15 1 17 14.15 17.71 14.85 30.85 1.71 30.85 9 31.85 9 31.85 0 22.85 0" fill="currentColor"/><polygon points="17 17.71 30.15 30.85 22.85 30.85 22.85 31.85 31.85 31.85 31.85 22.85 30.85 22.85 30.85 30.15 17.71 17 17 17.71" fill="currentColor"/><polygon points="0 0 0 9 1 9 1 1.71 14.15 14.85 14.85 14.15 1.71 1 9 1 9 0 0 0" fill="currentColor"/><polygon points="1 30.15 1 22.85 0 22.85 0 31.85 9 31.85 9 30.85 1.71 30.85 14.85 17.71 14.15 17 1 30.15" fill="currentColor"/></svg>