<svg xmlns="http://www.w3.org/2000/svg" xmlns:xlink="http://www.w3.org/1999/xlink" width="60.82" height="49.98" viewBox="0 0 60.82 49.98"><defs><clipPath id="a" transform="translate(0 0)"><rect width="60.82" height="49.99" fill="none"/></clipPath></defs><g clip-path="url(#a)"><path d="M59,43.12c-.21-2.75-1.66-5-2.86-6.86-.32-.49-.62-.95-.88-1.41-.79-3.15.07-5.29,1.25-8.24a25.51,25.51,0,0,0,2.26-12.95C58.09,6.42,52.64,2.1,43.4,1.47h-.14a2,2,0,0,0-1.1.33A13.36,13.36,0,0,0,39.23.15,2,2,0,0,0,38.47,0h0a2.05,2.05,0,0,0-2,1.75,15.3,15.3,0,0,0,0,3.71,2.71,2.71,0,0,0,.09.41,13.87,13.87,0,0,0-2.4,2.77c-.35.48-.73,1-1.16,1.55C31.09,5.05,26.05,2,18.4,1.47h-.14a2,2,0,0,0-1.1.33A13.36,13.36,0,0,0,14.23.15,2,2,0,0,0,13.47,0h0a2.05,2.05,0,0,0-2,1.75,15.3,15.3,0,0,0,0,3.71,2.71,2.71,0,0,0,.09.41,13.87,13.87,0,0,0-2.4,2.77A49.91,49.91,0,0,1,4.9,13.8l-.05.06a4.47,4.47,0,0,0-.68,4.85A4.35,4.35,0,0,0,8,21.39a3.85,3.85,0,0,0,2.72-1.15L12,19c.22,0,.43,0,.64,0a7.48,7.48,0,0,0,2.54-.4,13.68,13.68,0,0,1-3.59,4.51c-2.41,2.34-5.16,5-5.75,9.78a15.15,15.15,0,0,0-.11,2.26c-.26.42-.56.85-.87,1.29-1.23,1.8-2.72,4-3,6.6A3.68,3.68,0,0,0,3.71,50h53.4A3.68,3.68,0,0,0,59,43.12M37.85,7.39C38.38,7,39.05,7,39,6.21a1.48,1.48,0,0,0-.56-1h0a12.93,12.93,0,0,1,0-3.23,0,0,0,0,1,0,0h0a12.84,12.84,0,0,1,4.61,3.34h0l0,0,.11-1.84a0,0,0,0,1,0,0h0c6.14.41,12.79,2.67,13.5,10.37,1,10.86-5.53,13.9-3.39,21.78,1.22,2.15,3.07,4.31,3.53,7h-23a13.6,13.6,0,0,0-2.16-5.32c.37-.55.73-1.09,1-1.63h-.07a13.93,13.93,0,0,1,.07-2.43c1.16-9.28,11.87-9.27,9.5-20.12h0c-.7,2.95-2.28,4-4.63,4a9.38,9.38,0,0,1-1.36-.1h0L34.35,18.8a2,2,0,0,1-.7.47,23.92,23.92,0,0,0,.11-5.61c0-.36-.08-.71-.14-1.05,2.17-2.65,3.13-4.38,4.23-5.22m-7.6,27.46c-.79-3.15.07-5.29,1.25-8.24a36,36,0,0,0,1.76-5.24,3.92,3.92,0,0,0,2.49-1.13L37,19c.22,0,.43,0,.64,0a7.48,7.48,0,0,0,2.54-.4,13.68,13.68,0,0,1-3.59,4.51c-2.41,2.34-5.16,5-5.75,9.78a15.15,15.15,0,0,0-.11,2.26l-.12.19c-.12-.18-.24-.37-.34-.55M7.8,35.62H7.73a13.93,13.93,0,0,1,.07-2.43C9,23.91,19.67,23.92,17.3,13.07h-.05c-.7,2.95-2.28,4-4.63,4a9.38,9.38,0,0,1-1.36-.1h0L9.35,18.8A1.87,1.87,0,0,1,8,19.39a2.59,2.59,0,0,1-1.68-4.21c3.9-4.13,5.08-6.7,6.5-7.79C13.38,7,14.05,7,14,6.21a1.48,1.48,0,0,0-.56-1h0a12.93,12.93,0,0,1,0-3.23,0,0,0,0,1,0,0h0a12.84,12.84,0,0,1,4.61,3.34h0a0,0,0,0,0,0,0l.11-1.84a0,0,0,0,1,0,0h0c5.63.38,11.68,2.32,13.2,8.59a13.47,13.47,0,0,1,.3,1.78c0,.29,0,.55.05.83a21.49,21.49,0,0,1-.13,4.16A21,21,0,0,1,31.3,21C30,26.61,26.8,29.8,28.38,35.62c.3.53.64,1.06,1,1.59s.8,1.23,1.17,1.88a10.83,10.83,0,0,1,1.38,3.48H4c.55-2.64,2.61-4.8,3.83-7M28.71,48h-25A1.71,1.71,0,0,1,2,46.11a1.78,1.78,0,0,1,1.75-1.54h28.3a1.78,1.78,0,0,1,1.75,1.54A1.71,1.71,0,0,1,32.11,48Zm28.4,0H35.38a3.67,3.67,0,0,0,.42-2.06,3.36,3.36,0,0,0-.44-1.35h21.7a1.78,1.78,0,0,1,1.75,1.54A1.71,1.71,0,0,1,57.11,48" transform="translate(0 0)" fill="#ffffff"/></g></svg>