<svg xmlns="http://www.w3.org/2000/svg" xmlns:xlink="http://www.w3.org/1999/xlink" width="55.61" height="50" viewBox="0 0 55.61 50"><defs><clipPath id="a" transform="translate(0 0)"><rect width="55.61" height="50" fill="none"/></clipPath></defs><g clip-path="url(#a)"><path d="M39.27,17.32a16.3,16.3,0,0,0-12.82,6.23,14.27,14.27,0,0,0-7.19-5.13,9.86,9.86,0,1,0-9.74,0C4,20.22,0,25,0,30.62V50H28.78V46.18A16.34,16.34,0,1,0,39.27,17.32M6.53,9.86a7.86,7.86,0,1,1,8.63,7.82c-.25,0-.51,0-.77,0s-.51,0-.77,0A7.88,7.88,0,0,1,6.53,9.86M26.78,48H2V30.62C2,24.8,7.14,20,13.61,19.68q.39,0,.78,0t.78,0a12.63,12.63,0,0,1,10.07,5.64,16.28,16.28,0,0,0,1.54,18.87Zm12.49,0a14.32,14.32,0,0,1-10.49-4.59,15.25,15.25,0,0,1-2-2.72,14.24,14.24,0,0,1-.49-13.09,14.92,14.92,0,0,1,1.28-2.19A14.33,14.33,0,1,1,39.27,48" transform="translate(0 0)" fill="#ffffff"/><path d="M47.07,28a1,1,0,0,0-.71.29l-8.54,8.54-4-4a1,1,0,0,0-1.41,0,1,1,0,0,0,0,1.41l4.7,4.7a1,1,0,0,0,1.41,0l9.24-9.24a1,1,0,0,0-.7-1.71" transform="translate(0 0)" fill="#ffffff"/></g></svg>