<svg xmlns="http://www.w3.org/2000/svg" xmlns:xlink="http://www.w3.org/1999/xlink" width="53.85" height="50" viewBox="0 0 53.85 50"><defs><clipPath id="a" transform="translate(0 0)"><rect width="53.85" height="50" fill="none"/></clipPath></defs><g clip-path="url(#a)"><path d="M37.62,21.48A3.52,3.52,0,1,0,41.14,25a3.52,3.52,0,0,0-3.52-3.52m0,5A1.52,1.52,0,1,1,39.14,25a1.52,1.52,0,0,1-1.52,1.52" transform="translate(0 0)" fill="#ffffff"/><path d="M47.14,0H6.71A6.7,6.7,0,0,0,0,6.71V43.29A6.7,6.7,0,0,0,6.71,50H47.14a6.7,6.7,0,0,0,6.71-6.71V6.71A6.7,6.7,0,0,0,47.14,0m4.71,6.71v9.86h-4V6.71A6.69,6.69,0,0,0,45.92,2h1.22a4.71,4.71,0,0,1,4.71,4.71m0,24.71H37.62a6.43,6.43,0,0,1,0-12.85H51.85ZM17.16,48H6.71A4.71,4.71,0,0,1,2,43.29V6.71A4.71,4.71,0,0,1,6.71,2H41.14a4.71,4.71,0,0,1,4.71,4.71v9.86H37.62a8.43,8.43,0,0,0,0,16.85h8.23v9.87A4.71,4.71,0,0,1,41.14,48Zm30,0H45.92a6.69,6.69,0,0,0,1.93-4.71V33.42h4v9.87A4.71,4.71,0,0,1,47.14,48" transform="translate(0 0)" fill="#ffffff"/></g></svg>