<svg xmlns="http://www.w3.org/2000/svg" xmlns:xlink="http://www.w3.org/1999/xlink" width="64.83" height="50" viewBox="0 0 64.83 50"><defs><clipPath id="a" transform="translate(0 0)"><rect width="64.83" height="50" fill="none"/></clipPath></defs><g clip-path="url(#a)"><path d="M55.23,18.07A12.29,12.29,0,0,0,52,17.55h-.44a11.07,11.07,0,0,0-2.54.33,25,25,0,1,0-5.12,23.53l1.3,1.45a24,24,0,0,1,4.19,5.57A2.65,2.65,0,0,0,51.63,50h.19a2.63,2.63,0,0,0,2.29-1.56,24.39,24.39,0,0,1,4.2-5.57c3.06-3.4,6.52-7.26,6.52-12.12a13.19,13.19,0,0,0-9.6-12.67M43.54,11.41A23,23,0,0,1,47,18.47a13,13,0,0,0-4.18,2.62,32.18,32.18,0,0,0-2-8.21,24.12,24.12,0,0,0,2.72-1.47M40.5,24H33.72a68.3,68.3,0,0,0-.67-8.67A35.14,35.14,0,0,0,39,13.65a30.1,30.1,0,0,1,2,9.55c-.18.26-.35.52-.52.8M42.29,9.85A24.4,24.4,0,0,1,40,11.06a23.08,23.08,0,0,0-4.73-6.63,23.2,23.2,0,0,1,7,5.42m-4.12,2a33.8,33.8,0,0,1-5.45,1.53c-.84-4.57-2.17-8.3-3.78-10.65,3.79,1.37,7.05,4.67,9.23,9.12M18.29,24a64.74,64.74,0,0,1,.63-8.34,44,44,0,0,0,6.07.42,44.45,44.45,0,0,0,6.09-.42A64.6,64.6,0,0,1,31.71,24Zm13.42,2a64.6,64.6,0,0,1-.63,8.34,44.22,44.22,0,0,0-12.16,0A64.74,64.74,0,0,1,18.29,26ZM25,2c1.9,0,4.4,4.33,5.76,11.68a41.59,41.59,0,0,1-5.77.4,41.3,41.3,0,0,1-5.75-.4C20.59,6.33,23.09,2,25,2m-3.94.7c-1.62,2.35-2.94,6.08-3.78,10.65a33.8,33.8,0,0,1-5.45-1.52C14,7.38,17.27,4.07,21.06,2.7M16.28,24H8.93A30.83,30.83,0,0,1,11,13.66,35.53,35.53,0,0,0,17,15.33,68.45,68.45,0,0,0,16.28,24M17,34.67A35.53,35.53,0,0,0,11,36.34,30.83,30.83,0,0,1,8.93,26h7.35A68.45,68.45,0,0,0,17,34.67M14.72,4.43A23.3,23.3,0,0,0,10,11.06a21.05,21.05,0,0,1-2.27-1.2,23.15,23.15,0,0,1,7-5.43m-8.27,7a23.44,23.44,0,0,0,2.73,1.47A32.55,32.55,0,0,0,6.93,24H2A23,23,0,0,1,6.45,11.42m0,27.16A23,23,0,0,1,2,26H6.93A32.55,32.55,0,0,0,9.18,37.11a23.44,23.44,0,0,0-2.73,1.47m1.26,1.56A23,23,0,0,1,10,38.93a23.21,23.21,0,0,0,4.74,6.64,23.15,23.15,0,0,1-7-5.43m4.12-2a33.8,33.8,0,0,1,5.45-1.52c.84,4.57,2.16,8.3,3.78,10.65-3.79-1.37-7-4.68-9.23-9.13M25,48c-1.91,0-4.41-4.33-5.76-11.68a41.67,41.67,0,0,1,11.52,0C29.4,43.67,26.9,48,25,48m3.94-.7c1.61-2.35,2.94-6.08,3.78-10.65a33.8,33.8,0,0,1,5.45,1.53c-2.18,4.45-5.44,7.75-9.23,9.12m6.34-1.73A23.08,23.08,0,0,0,40,38.94a24.4,24.4,0,0,1,2.28,1.21,23.36,23.36,0,0,1-7,5.42M39,36.35a35.14,35.14,0,0,0-5.93-1.68A68.45,68.45,0,0,0,33.72,26h5.8a13.18,13.18,0,0,0-.9,4.74,11,11,0,0,0,.87,4.2q-.24.72-.51,1.41m13.3,11.27a.61.61,0,0,1-.55.37.6.6,0,0,1-.55-.37c-1.15-2.6-3.73-5.11-6-7.8-.46-.53-.9-1.06-1.33-1.61a19.27,19.27,0,0,1-2.17-3.4,9.48,9.48,0,0,1-1-4.07c0-.15,0-.28,0-.43.12-.68.2-1.37.27-2.07a11.14,11.14,0,0,1,6.63-7.81A9.92,9.92,0,0,1,48.77,20q.34-.11.69-.18a9,9,0,0,1,2-.27H52a10.06,10.06,0,0,1,2.74.45,11.14,11.14,0,0,1,8.14,10.74c0,6.69-8.24,11.62-10.55,16.88" transform="translate(0 0)" fill="#ffffff"/><path d="M51.73,23.42a6.93,6.93,0,0,0-1.77.23,7.17,7.17,0,0,0-4.14,11.08,7.07,7.07,0,0,0,1.48,1.56,7.2,7.2,0,1,0,4.43-12.87m0,12.41a5.17,5.17,0,0,1-3.56-1.43,5.45,5.45,0,0,1-1.65-3.78A5.22,5.22,0,0,1,50,25.74a5.08,5.08,0,0,1,1.75-.32,5.21,5.21,0,0,1,0,10.41" transform="translate(0 0)" fill="#ffffff"/></g></svg>