<svg xmlns="http://www.w3.org/2000/svg" xmlns:xlink="http://www.w3.org/1999/xlink" width="65.98" height="50" viewBox="0 0 65.98 50"><defs><clipPath id="a" transform="translate(0 0)"><rect width="65.98" height="50" fill="none"/></clipPath></defs><g clip-path="url(#a)"><path d="M8.41,9.75H29.24a1,1,0,0,0,0-2H8.41a1,1,0,0,0,0,2" transform="translate(0 0)" fill="#ffffff"/><path d="M8.41,16.42H19.24a1,1,0,0,0,0-2H8.41a1,1,0,0,0,0,2" transform="translate(0 0)" fill="#ffffff"/><path d="M8.41,23.08H24.24a1,1,0,0,0,0-2H8.41a1,1,0,0,0,0,2" transform="translate(0 0)" fill="#ffffff"/><path d="M20.24,28.75a1,1,0,0,0-1-1H8.41a1,1,0,1,0,0,2H19.24a1,1,0,0,0,1-1" transform="translate(0 0)" fill="#ffffff"/><path d="M54.16,9.43a4.24,4.24,0,1,0,4.24,4.24,4.24,4.24,0,0,0-4.24-4.24m0,6.48a2.24,2.24,0,1,1,2.24-2.24,2.24,2.24,0,0,1-2.24,2.24" transform="translate(0 0)" fill="#ffffff"/><path d="M61.51,6.79a15.3,15.3,0,0,0-21.6,0,15.51,15.51,0,0,0-2.28,2.93V4.12A4.12,4.12,0,0,0,33.51,0H4.12A4.13,4.13,0,0,0,0,4.12V45.88A4.13,4.13,0,0,0,4.12,50H33.51a4.12,4.12,0,0,0,4.12-4.12V39.33l7.52-7.52a15.27,15.27,0,0,0,16.36-25M4.12,48A2.12,2.12,0,0,1,2,45.88V4.12A2.12,2.12,0,0,1,4.12,2H33.51a2.12,2.12,0,0,1,2.12,2.12V15.23a15.43,15.43,0,0,0,1.1,8.51l-1.1,1.1-.07.07a2.48,2.48,0,0,0-.67,2.29l.11.51-.52-.11a2.47,2.47,0,0,0-2.28.67l-2.26,2.26a2.51,2.51,0,0,0-.7,2.12l.17,1.15-1,0a2.5,2.5,0,0,0-2.55,2.95h0l-.81-.08a2.48,2.48,0,0,0-2,.72l-4.28,4.28a2.48,2.48,0,0,0-.73,1.76,2.13,2.13,0,0,0,0,.27l.44,4.09a1.89,1.89,0,0,0,.05.23Zm31.51-2.12A2.12,2.12,0,0,1,33.51,48H29l6.67-6.67ZM60.1,27a13.35,13.35,0,0,1-14.78,2.73,1,1,0,0,0-1.11.21L37.63,36.5l-2,2-9.35,9.35a.49.49,0,0,1-.35.15H23.45L34.63,36.82a1,1,0,0,0-1.42-1.42L20.73,47.89a.53.53,0,0,1-.19-.34l-.45-4.14a.49.49,0,0,1,.15-.35l4.27-4.27a.49.49,0,0,1,.35-.15h.05l2.14.2a1,1,0,0,0,.83-.32.94.94,0,0,0,.24-.86l-.25-1.31a.45.45,0,0,1,.12-.41.55.55,0,0,1,.39-.18l2.16.09a1,1,0,0,0,.78-.34,1,1,0,0,0,.25-.81l-.35-2.34a.51.51,0,0,1,.14-.42l2.25-2.25a.52.52,0,0,1,.46-.14l1.56.33.47.1a1,1,0,0,0,1.18-1.19l-.44-2a.52.52,0,0,1,.14-.46l.65-.65,1-1a1,1,0,0,0,.19-1.15,13.53,13.53,0,0,1-1.2-3.71A13.27,13.27,0,1,1,60.1,27" transform="translate(0 0)" fill="#ffffff"/></g></svg>