<svg width="48" height="48" viewBox="0 0 48 48" fill="none" xmlns="http://www.w3.org/2000/svg">
<g id="23-jude">
<g id="Group">
<g id="Group_2">
<g id="Group_3">
<g id="Group_4">
<g id="Group_5">
<path id="Vector" d="M31 7C31 3.68629 28.3137 1 25 1C21.6863 1 19 3.68629 19 7V13C19 16.3137 21.6863 19 25 19C28.3137 19 31 16.3137 31 13V7Z" stroke="#2A3C7B" stroke-width="2" stroke-linejoin="round"/>
<path id="Vector_2" d="M19 9C19 9 22 9 22 6C22 6 22 9 31 9" stroke="#2A3C7B" stroke-width="2" stroke-linejoin="round"/>
</g>
<path id="Vector_3" d="M31 10H32V13H31" stroke="#2A3C7B" stroke-width="2" stroke-linejoin="round"/>
<path id="Vector_4" d="M19 13H18V10H19" stroke="#2A3C7B" stroke-width="2" stroke-linejoin="round"/>
</g>
<path id="Vector_5" d="M23 19V20C23 21.1 23.9 22 25 22C26.1 22 27 21.1 27 20V19" stroke="#2A3C7B" stroke-width="2" stroke-linejoin="round"/>
</g>
<path id="Vector_6" d="M12 36V29C12 24.58 15.58 21 20 21" stroke="#2A3C7B" stroke-width="2" stroke-linejoin="round"/>
<path id="Vector_7" d="M30 21C34.42 21 38 24.58 38 29V33" stroke="#2A3C7B" stroke-width="2" stroke-linejoin="round"/>
<path id="Vector_8" d="M34 22L25 31L16 22" stroke="#2A3C7B" stroke-width="2" stroke-linejoin="round"/>
<path id="Vector_9" d="M25 31V35" stroke="#2A3C7B" stroke-width="2" stroke-linejoin="round"/>
<path id="Vector_10" d="M17 38V31" stroke="#2A3C7B" stroke-width="2" stroke-linejoin="round"/>
</g>
<path id="Vector_11" d="M17 1H3C1.9 1 1 1.9 1 3V16C1 17.1 1.9 18 3 18H5L8 22V18H15" stroke="#2A3C7B" stroke-width="2" stroke-linejoin="round"/>
<path id="Vector_12" d="M35 10H45C46.1 10 47 10.9 47 12V18C47 19.1 46.1 20 45 20H44L41 23V20H37" stroke="#2A3C7B" stroke-width="2" stroke-linejoin="round"/>
<path id="Vector_13" d="M4 7H15" stroke="#2A3C7B" stroke-width="2" stroke-linejoin="round"/>
<path id="Vector_14" d="M4 12H15" stroke="#2A3C7B" stroke-width="2" stroke-linejoin="round"/>
<path id="Vector_15" d="M44 15H35" stroke="#2A3C7B" stroke-width="2" stroke-linejoin="round"/>
<g id="Group_6">
<path id="Vector_16" d="M31 39.0002H23.89C22.85 39.0002 22 38.1102 22 37.0102V36.9802C22 35.8902 22.85 34.9902 23.89 34.9902H27.7C27.7 34.9902 27.7 32.9902 34.35 32.9902C41 32.9902 41 34.9902 41 34.9902V44.9902C41 44.9902 25.95 46.9902 25 46.9902L9 38.9902C9 37.0502 10.93 35.6902 12.76 36.3602L21 39.9902L23 38.9902" stroke="#2A3C7B" stroke-width="2" stroke-linejoin="round"/>
<path id="Vector_17" d="M47 33H41V46H47V33Z" stroke="#2A3C7B" stroke-width="2" stroke-linejoin="round"/>
</g>
</g>
</g>
</svg>
