<svg width="48" height="48" viewBox="0 0 48 48" fill="none" xmlns="http://www.w3.org/2000/svg">
<g id="13-law">
<g id="Group">
<g id="Group_2">
<g id="Group_3">
<g id="Group_4">
<g id="Group_5">
<path id="Vector" d="M20 19C20 15.6863 17.3137 13 14 13C10.6863 13 8 15.6863 8 19V25C8 28.3137 10.6863 31 14 31C17.3137 31 20 28.3137 20 25V19Z" stroke="#2A3C7B" stroke-width="2" stroke-linejoin="round"/>
<path id="Vector_2" d="M8 21C8 21 11 21 11 18C11 18 11 21 20 21" stroke="#2A3C7B" stroke-width="2" stroke-linejoin="round"/>
</g>
<path id="Vector_3" d="M20 22H21V25H20" stroke="#2A3C7B" stroke-width="2" stroke-linejoin="round"/>
<path id="Vector_4" d="M8 25H7V22H8" stroke="#2A3C7B" stroke-width="2" stroke-linejoin="round"/>
</g>
<path id="Vector_5" d="M12 31V32C12 33.1 12.9 34 14 34C15.1 34 16 33.1 16 32V31" stroke="#2A3C7B" stroke-width="2" stroke-linejoin="round"/>
</g>
<path id="Vector_6" d="M19 33C23.42 33 27 36.58 27 41V47H1V41C1 36.58 4.58 33 9 33" stroke="#2A3C7B" stroke-width="2" stroke-linejoin="round"/>
<path id="Vector_7" d="M23 34L14 43L5 34" stroke="#2A3C7B" stroke-width="2" stroke-linejoin="round"/>
<path id="Vector_8" d="M14 43V47" stroke="#2A3C7B" stroke-width="2" stroke-linejoin="round"/>
<path id="Vector_9" d="M6 47V43" stroke="#2A3C7B" stroke-width="2" stroke-linejoin="round"/>
<path id="Vector_10" d="M22 47V43" stroke="#2A3C7B" stroke-width="2" stroke-linejoin="round"/>
</g>
<g id="Group_6">
<g id="Group_7">
<path id="Vector_11" d="M35 19C35 22.31 37.69 25 41 25C44.31 25 47 22.31 47 19H35Z" stroke="#2A3C7B" stroke-width="2" stroke-linejoin="round"/>
<path id="Vector_12" d="M35 19L41 9L47 19" stroke="#2A3C7B" stroke-width="2" stroke-linejoin="round"/>
</g>
<path id="Vector_13" d="M19 9H41" stroke="#2A3C7B" stroke-width="2" stroke-linejoin="round"/>
<path id="Vector_14" d="M30 5C31.1046 5 32 4.10457 32 3C32 1.89543 31.1046 1 30 1C28.8954 1 28 1.89543 28 3C28 4.10457 28.8954 5 30 5Z" stroke="#2A3C7B" stroke-width="2" stroke-linejoin="round"/>
<path id="Vector_15" d="M30 5V29" stroke="#2A3C7B" stroke-width="2" stroke-linejoin="round"/>
<path id="Vector_16" d="M22 31C22 29.9 22.9 29 24 29H36C37.1 29 38 29.9 38 31V33H27" stroke="#2A3C7B" stroke-width="2" stroke-linejoin="round"/>
</g>
</g>
</g>
</svg>
