<svg 
 xmlns="http://www.w3.org/2000/svg"
 xmlns:xlink="http://www.w3.org/1999/xlink"
 width="34px" height="27px">
<path fill-rule="evenodd"  fill="rgb(117, 147, 208)"
 d="M0.952,26.994 C1.860,26.440 2.891,25.793 4.045,25.055 C5.199,24.316 6.385,23.485 7.605,22.562 C8.824,21.638 10.010,20.616 11.164,19.495 C12.318,18.373 13.349,17.153 14.257,15.834 C15.165,14.515 15.897,13.097 16.455,11.580 C17.013,10.064 17.292,8.448 17.292,6.733 C17.292,5.783 17.175,4.893 16.942,4.062 C16.708,3.231 16.339,2.518 15.833,1.925 C15.327,1.331 14.678,0.863 13.888,0.520 C13.096,0.177 12.157,0.005 11.067,0.005 C10.003,0.005 9.089,0.203 8.325,0.599 C7.559,0.995 6.924,1.503 6.418,2.122 C5.913,2.742 5.536,3.422 5.290,4.161 C5.043,4.899 4.921,5.611 4.921,6.298 C4.921,6.957 5.018,7.544 5.212,8.058 C5.407,8.572 5.718,9.067 6.146,9.542 C6.574,10.017 7.112,10.492 7.760,10.967 C8.408,11.441 9.186,11.969 10.095,12.550 C9.731,13.420 9.599,14.057 8.997,15.134 C6.196,20.151 2.807,22.931 -0.000,25.005 L0.952,26.994 Z"/>
<path fill-rule="evenodd"  fill="rgb(117, 147, 208)"
 d="M17.661,26.994 C18.569,26.440 19.600,25.793 20.754,25.055 C21.908,24.316 23.094,23.485 24.314,22.562 C25.532,21.638 26.719,20.616 27.873,19.495 C29.027,18.373 30.058,17.153 30.966,15.834 C31.874,14.515 32.606,13.097 33.164,11.580 C33.722,10.064 34.001,8.448 34.001,6.733 C34.001,5.783 33.884,4.893 33.650,4.062 C33.417,3.231 33.047,2.518 32.542,1.925 C32.036,1.331 31.387,0.863 30.597,0.520 C29.805,0.177 28.865,0.005 27.776,0.005 C26.712,0.005 25.798,0.203 25.033,0.599 C24.268,0.995 23.633,1.503 23.127,2.122 C22.621,2.742 22.245,3.422 21.999,4.161 C21.752,4.899 21.629,5.611 21.629,6.298 C21.629,6.957 21.727,7.544 21.921,8.058 C22.116,8.572 22.427,9.067 22.855,9.542 C23.283,10.017 23.821,10.492 24.469,10.967 C25.117,11.441 25.895,11.969 26.804,12.550 C26.440,13.420 26.308,14.057 25.706,15.134 C22.905,20.151 19.515,22.931 16.709,25.005 L17.661,26.994 Z"/>
</svg>