<svg xmlns="http://www.w3.org/2000/svg" xmlns:xlink="http://www.w3.org/1999/xlink" viewBox="0 0 267.76 285"><defs><clipPath id="a" transform="translate(0 0)"><rect width="267.76" height="285" fill="none"/></clipPath></defs><g clip-path="url(#a)"><path d="M40.4,103.05H38.31C33.58,115,26.11,122.87,20,124.7v2H49.59v-2C40.9,123.18,36,113.88,40.4,103.05" transform="translate(0 0)" fill="#d3d3d3"/><polygon points="126.29 124.71 77.49 19.95 71.7 19.95 64.47 37.94 65.6 40.23 89.23 91.47 70.44 91.47 69.67 93.45 90.15 93.45 104.48 124.71 95.64 124.71 95.64 126.69 135.89 126.69 135.89 124.71 126.29 124.71" fill="#d3d3d3"/><path d="M118.48,170h1.83V131.68H84.25v3.21h1.57c24.19.17,29.93,14.75,32.66,35.07" transform="translate(0 0)" fill="#d3d3d3"/><path d="M118.8,215.38c-4.73,5.94-13,14.48-32,14.48-23.18,0-44.68-14.79-46.36-44.06-1.91-30.92,15.2-48,33.82-51.14v-2.91c-27.6,1.15-55.62,18.55-55.62,54.05,0,35.22,28.66,54.13,57.94,54.13,25.16,0,37.82-13.12,44.07-23.18Z" transform="translate(0 0)" fill="#d3d3d3"/><path d="M203.71,78.3h1.83V40h-50.3v3.2h15.39c24.55,0,30.34,14.64,33.08,35.07" transform="translate(0 0)" fill="#d3d3d3"/><path d="M174,89.89H155.24v2h9.87c13.11,0,28.51,4,28.51,26.08s-14,25.46-27.29,25.46H145.28V83l0-33.42V40H114.18v2h11.13V144.78H115.4v2h53.82c25.16,0,45.14-5.18,45.14-28.81,0-19.52-16.71-28.06-40.41-28.06" transform="translate(0 0)" fill="#d3d3d3"/><path d="M177.75,249.91c-14.83,8.06-34.23,16.16-59.58,24.28l-1,.32-1-.31C22.86,244.32,10,214.6,10,186.93V10H224.32V146.76h10V0H0V186.93c0,43,32.77,71.06,113.14,96.8l4,1.27,4-1.28c33.05-10.58,58.05-21.56,76-33.81Z" transform="translate(0 0)" fill="#d3d3d3"/><path d="M141.9,176.12a3,3,0,0,1-.84-.05,1.5,1.5,0,0,1-.56-.25,2,2,0,0,1-.44-.47l-.51-.73-5.08-7.22-1.31-.23v6.62a.73.73,0,0,0,.2.52,1,1,0,0,0,.46.29l1.7.5v.84h-8.65v-.84l1.75-.5a1,1,0,0,0,.46-.3.76.76,0,0,0,.18-.51V159.17a.81.81,0,0,0-.18-.53,1,1,0,0,0-.46-.29l-1.75-.5V157h8.68v.83l-1.73.5a.88.88,0,0,0-.46.29.81.81,0,0,0-.2.53V166h.61a3.2,3.2,0,0,0,.52,0,3.65,3.65,0,0,0,.55-.13,1.92,1.92,0,0,0,.51-.22,2,2,0,0,0,.44-.33,14,14,0,0,0,1.13-1.36,12.3,12.3,0,0,0,.79-1.27,11.66,11.66,0,0,0,.57-1.19l.47-1.13c.16-.37.33-.73.5-1.09a8.39,8.39,0,0,1,.66-1.07,3.14,3.14,0,0,1,.56-.63,2.87,2.87,0,0,1,.64-.43,2.69,2.69,0,0,1,.74-.25,4.44,4.44,0,0,1,.84-.08,8.15,8.15,0,0,1,1.22.09c.4.06.75.12,1.06.19l-.61,3.18H144l-.58-.06-.57-.09-.51-.07-.37,0a1.18,1.18,0,0,0-.76.27,3.42,3.42,0,0,0-.63.71,11,11,0,0,0-.6,1c-.19.38-.41.77-.63,1.17a10.66,10.66,0,0,1-.79,1.19,6.32,6.32,0,0,1-1,1.06l5.77,8.15a5.09,5.09,0,0,0,.61.71,1.74,1.74,0,0,0,.72.44l1.42.42v.84Z" transform="translate(0 0)" fill="#d3d3d3"/><path d="M153.16,176.31a7.64,7.64,0,0,1-2.83-.49,5.88,5.88,0,0,1-2.12-1.41,6.37,6.37,0,0,1-1.34-2.22,8.45,8.45,0,0,1-.47-2.88,8,8,0,0,1,.46-2.75,6.56,6.56,0,0,1,1.35-2.25,6.27,6.27,0,0,1,2.17-1.51,7.34,7.34,0,0,1,2.94-.55,7.44,7.44,0,0,1,3.05.58,6,6,0,0,1,2.1,1.56,6.21,6.21,0,0,1,1.22,2.23,9,9,0,0,1,.39,2.63,8.16,8.16,0,0,1-.45,2.74,6.54,6.54,0,0,1-1.34,2.25,6.33,6.33,0,0,1-2.18,1.52,7.39,7.39,0,0,1-3,.55m.18-1.38a2,2,0,0,0,1.43-.52,3.58,3.58,0,0,0,.85-1.32,7.23,7.23,0,0,0,.4-1.75,16.88,16.88,0,0,0,.11-1.82,15,15,0,0,0-.15-2.13,7.91,7.91,0,0,0-.49-1.89,3.69,3.69,0,0,0-.91-1.35,2,2,0,0,0-1.43-.53,1.93,1.93,0,0,0-1.41.52,3.46,3.46,0,0,0-.85,1.31,7.15,7.15,0,0,0-.41,1.74,16.73,16.73,0,0,0-.11,1.82,17.42,17.42,0,0,0,.12,2,7.94,7.94,0,0,0,.44,1.92,3.91,3.91,0,0,0,.91,1.43,2,2,0,0,0,1.5.57" transform="translate(0 0)" fill="#d3d3d3"/><path d="M162.37,176.16H162l-.38,0-.33,0-.23,0,.65-3.21h.23a5,5,0,0,0,.95.13c.35,0,.71,0,1.05,0s.5-.23.79-.7a8.85,8.85,0,0,0,.79-1.84,18.74,18.74,0,0,0,.6-2.63,19.19,19.19,0,0,0,.24-3.07,1,1,0,0,0-.05-.36.66.66,0,0,0-.13-.25.62.62,0,0,0-.2-.15,1.33,1.33,0,0,0-.24-.1l-1.59-.44v-.81h12.59v.81l-1.35.44a.9.9,0,0,0-.44.29.71.71,0,0,0-.18.5v9.24a.71.71,0,0,0,.18.5.88.88,0,0,0,.44.28l1.35.44v.81h-7.59v-.81l1.32-.44a1.35,1.35,0,0,0,.44-.29.64.64,0,0,0,.18-.49V164h-3.18a28.38,28.38,0,0,1-.52,5.24,16.47,16.47,0,0,1-1.23,3.8,6.79,6.79,0,0,1-1.74,2.31,3.32,3.32,0,0,1-2,.77" transform="translate(0 0)" fill="#d3d3d3"/><path d="M179.63,176.16h-.36l-.39,0-.33,0-.22,0,.64-3.21h.23a5.19,5.19,0,0,0,1,.13c.36,0,.71,0,1.06,0s.5-.23.78-.7a7.9,7.9,0,0,0,.79-1.84,17.37,17.37,0,0,0,.61-2.63,19.19,19.19,0,0,0,.24-3.07,1.25,1.25,0,0,0,0-.36.84.84,0,0,0-.13-.25.75.75,0,0,0-.2-.15l-.24-.1-1.59-.44v-.81H194v.81l-1.36.44a1,1,0,0,0-.44.29.71.71,0,0,0-.18.5v9.24a.71.71,0,0,0,.18.5,1,1,0,0,0,.44.28l1.36.44v.81h-7.59v-.81l1.31-.44a1.25,1.25,0,0,0,.44-.29.64.64,0,0,0,.18-.49V164h-3.17a28.32,28.32,0,0,1-.53,5.24,16.47,16.47,0,0,1-1.23,3.8,6.55,6.55,0,0,1-1.74,2.31,3.29,3.29,0,0,1-2.05.77" transform="translate(0 0)" fill="#d3d3d3"/><path d="M202.06,176.24a7.88,7.88,0,0,1-2.72-.44,5.7,5.7,0,0,1-2.11-1.33,5.84,5.84,0,0,1-1.37-2.16,8.26,8.26,0,0,1-.49-3,7.84,7.84,0,0,1,.46-2.69,7,7,0,0,1,1.35-2.26,6.54,6.54,0,0,1,2.15-1.56,7,7,0,0,1,2.88-.58,6.09,6.09,0,0,1,2.41.45,5.72,5.72,0,0,1,1.76,1.18,5,5,0,0,1,1.07,1.67,5.11,5.11,0,0,1,.38,1.9c0,.09,0,.2,0,.33s0,.28,0,.42l0,.39c0,.12,0,.22,0,.28h-8.53a6.37,6.37,0,0,0,1.07,3.93,3.88,3.88,0,0,0,3.27,1.34,6.06,6.06,0,0,0,1.33-.13,8.16,8.16,0,0,0,1.08-.33,6.89,6.89,0,0,0,.86-.42l.66-.39h.32v1a9,9,0,0,1-1.07.81,11.69,11.69,0,0,1-1.36.75,9.37,9.37,0,0,1-1.57.55,7.15,7.15,0,0,1-1.74.21m2-8.52a13.63,13.63,0,0,0-.09-1.62,4.66,4.66,0,0,0-.33-1.3,2.11,2.11,0,0,0-.65-.86,1.65,1.65,0,0,0-1-.32,2.3,2.3,0,0,0-1.12.28,2.36,2.36,0,0,0-.81.82,4.24,4.24,0,0,0-.51,1.29,9.19,9.19,0,0,0-.23,1.71Z" transform="translate(0 0)" fill="#d3d3d3"/><path d="M209.32,175.13l1.36-.44a1,1,0,0,0,.44-.28.71.71,0,0,0,.18-.5v-9.24a.71.71,0,0,0-.18-.5,1,1,0,0,0-.44-.29l-1.36-.44v-.81h11.59v4.52h-1.1l-1-2.46a1.28,1.28,0,0,0-.36-.45,1.16,1.16,0,0,0-.73-.19H215v9.86a.77.77,0,0,0,.17.51.86.86,0,0,0,.45.27l1.4.44v.81h-7.68Z" transform="translate(0 0)" fill="#d3d3d3"/><path d="M222.72,175.13l1.35-.44a.88.88,0,0,0,.44-.28.71.71,0,0,0,.18-.5v-9.24a.71.71,0,0,0-.18-.5.9.9,0,0,0-.44-.29l-1.35-.44v-.81H230v.81l-1,.44a1.35,1.35,0,0,0-.43.29.68.68,0,0,0-.18.5v6.22l0,1.28v.34l5.45-8.83v-1.05h5.57v.81l-1.36.44a.92.92,0,0,0-.43.29.71.71,0,0,0-.18.5v9.24a.71.71,0,0,0,.18.5.9.9,0,0,0,.43.28l1.36.44v.81H232v-.81l1-.44a1.25,1.25,0,0,0,.44-.29.64.64,0,0,0,.18-.49v-6.18l0-1.18v-.43l-5.43,8.82v1h-5.59Z" transform="translate(0 0)" fill="#d3d3d3"/><path d="M240.86,175.94v-.81l1.07-.3a2.93,2.93,0,0,0,.66-.26,1.46,1.46,0,0,0,.46-.4l3-4a7,7,0,0,1-1-.34,4,4,0,0,1-1-.64,3.13,3.13,0,0,1-.76-1,3.28,3.28,0,0,1-.31-1.48,4.21,4.21,0,0,1,.27-1.48,3.36,3.36,0,0,1,.9-1.31,4.53,4.53,0,0,1,1.66-.92,7.92,7.92,0,0,1,2.57-.36h8v.82l-1.36.43a1,1,0,0,0-.44.29.71.71,0,0,0-.18.5v9.24a.71.71,0,0,0,.18.5.93.93,0,0,0,.44.28l1.36.44v.81h-7.3v-.81l1.05-.44a1.51,1.51,0,0,0,.44-.28.72.72,0,0,0,.17-.5v-3.56h-1l-3.12,4.43c-.16.22-.3.42-.45.59a2.46,2.46,0,0,1-.44.42,1.65,1.65,0,0,1-.54.24,2.66,2.66,0,0,1-.73.06Zm9.86-6.71V164H249.2a2.18,2.18,0,0,0-1.74.7,2.82,2.82,0,0,0-.62,1.95,4,4,0,0,0,.12,1,2.24,2.24,0,0,0,.4.82,1.86,1.86,0,0,0,.71.55,2.72,2.72,0,0,0,1.09.2Z" transform="translate(0 0)" fill="#d3d3d3"/><path d="M125.36,207l1.27-.48a1.41,1.41,0,0,0,.81-.81l5.45-13.93,1.66-3.16h1.66l6.73,17.09a1.36,1.36,0,0,0,.34.49,1.51,1.51,0,0,0,.47.32L145,207v.84h-8.27V207l2.39-.59-2.06-5.24H131l-2,5.18,2.34.65v.84h-6Zm11.13-7.34-1.8-4.56-.7-1.85-2.39,6.41Z" transform="translate(0 0)" fill="#d3d3d3"/><path d="M146,206.47h1.59a7.77,7.77,0,0,0,1.06-1.68,16.78,16.78,0,0,0,.94-2.39,21,21,0,0,0,.67-2.81,17.13,17.13,0,0,0,.26-2.92.84.84,0,0,0-.18-.61,1,1,0,0,0-.44-.24l-1.59-.44v-.81h12.89v.81l-1.36.44a1,1,0,0,0-.44.28.71.71,0,0,0-.18.5v9.87h2.43v5.7h-1.2l-1.51-3.8a1.21,1.21,0,0,0-.27-.41.65.65,0,0,0-.39-.13h-8.9a.66.66,0,0,0-.4.13.94.94,0,0,0-.26.41l-1.51,3.8H146Zm9.54,0V196H152a28.78,28.78,0,0,1-.27,3.5,24,24,0,0,1-.59,2.95,14.35,14.35,0,0,1-.87,2.34,8.53,8.53,0,0,1-1.07,1.71Z" transform="translate(0 0)" fill="#d3d3d3"/><path d="M163.43,207.06l1.36-.43a1,1,0,0,0,.44-.29.71.71,0,0,0,.18-.5V196.6a.71.71,0,0,0-.18-.5,1,1,0,0,0-.44-.28l-1.36-.44v-.81h8a10.24,10.24,0,0,1,2.35.22,4.09,4.09,0,0,1,1.45.59,2,2,0,0,1,.74.88,2.76,2.76,0,0,1,.21,1.07,2.84,2.84,0,0,1-.94,2.15,4.92,4.92,0,0,1-1.19.79,8.23,8.23,0,0,1-1.66.6l.36,0a6.48,6.48,0,0,1,1.73.33,4.38,4.38,0,0,1,1.31.68,3.09,3.09,0,0,1,.83,1,2.77,2.77,0,0,1,.29,1.25,3.93,3.93,0,0,1-.21,1.34,2.88,2.88,0,0,1-.57,1,2.85,2.85,0,0,1-.86.68,5.07,5.07,0,0,1-1.09.44,7.2,7.2,0,0,1-1.26.22,11.78,11.78,0,0,1-1.34.07h-8.16Zm6.3-6.59a4.53,4.53,0,0,0,1.37-.27,2,2,0,0,0,.79-.49,1.44,1.44,0,0,0,.36-.69,3.23,3.23,0,0,0,.09-.84,3.46,3.46,0,0,0-.13-1,1.52,1.52,0,0,0-1.08-1.09,3.28,3.28,0,0,0-1-.13h-1.07v4.59Zm.86,6a2.74,2.74,0,0,0,1.82-.52,2.14,2.14,0,0,0,.61-1.7,2.68,2.68,0,0,0-.63-2,2.9,2.9,0,0,0-2.09-.62h-1.24v4.81Z" transform="translate(0 0)" fill="#d3d3d3"/><path d="M185.56,208.25a7.6,7.6,0,0,1-2.83-.5,5.92,5.92,0,0,1-2.13-1.41,6.31,6.31,0,0,1-1.33-2.21,8.27,8.27,0,0,1-.47-2.89,8,8,0,0,1,.46-2.75,6.54,6.54,0,0,1,1.34-2.25,6.4,6.4,0,0,1,2.18-1.51,7.48,7.48,0,0,1,2.94-.55,7.28,7.28,0,0,1,3.05.59,5.93,5.93,0,0,1,2.1,1.55,6.17,6.17,0,0,1,1.22,2.24,8.86,8.86,0,0,1,.39,2.63,8.25,8.25,0,0,1-.45,2.74,6.59,6.59,0,0,1-1.34,2.24,6.33,6.33,0,0,1-2.18,1.52,7.43,7.43,0,0,1-2.95.56m.17-1.39a2,2,0,0,0,1.43-.52A3.46,3.46,0,0,0,188,205a6.79,6.79,0,0,0,.41-1.75,16.34,16.34,0,0,0,0-3.94,7.91,7.91,0,0,0-.49-1.89,3.74,3.74,0,0,0-.91-1.36,2,2,0,0,0-1.44-.52,2,2,0,0,0-1.41.51,3.52,3.52,0,0,0-.84,1.31,7.23,7.23,0,0,0-.41,1.75,14.28,14.28,0,0,0-.11,1.81c0,.64,0,1.31.11,2a8,8,0,0,0,.45,1.91,3.9,3.9,0,0,0,.91,1.44,2.05,2.05,0,0,0,1.49.56" transform="translate(0 0)" fill="#d3d3d3"/><path d="M205.5,208a3.89,3.89,0,0,1-.72,0,1.34,1.34,0,0,1-.54-.19,1.62,1.62,0,0,1-.43-.4,4.61,4.61,0,0,1-.39-.66l-2.32-4.58-1.63-.37v4.05a.68.68,0,0,0,.18.5,1.53,1.53,0,0,0,.44.29l1,.44v.81h-7.3v-.81l1.36-.44a1,1,0,0,0,.44-.29.7.7,0,0,0,.18-.5V196.6a.71.71,0,0,0-.18-.5.93.93,0,0,0-.44-.28l-1.36-.44v-.81h7.3v.81l-1,.44a1.35,1.35,0,0,0-.44.29.64.64,0,0,0-.18.49v4.11h.75a3,3,0,0,0,1-.15,1.83,1.83,0,0,0,.78-.51,4.13,4.13,0,0,0,.65-1c.18-.4.35-.82.5-1.25l.47-1.22a3.81,3.81,0,0,1,.54-1,4.25,4.25,0,0,1,.57-.61,2.8,2.8,0,0,1,.59-.38,2.34,2.34,0,0,1,.63-.21,3.66,3.66,0,0,1,.68-.06,7.47,7.47,0,0,1,.86.06c.34,0,.65.08.92.13l-.61,3.05h-.26l-.42-.09-.44-.09-.4-.07-.31,0a1.34,1.34,0,0,0-.79.2,2,2,0,0,0-.52.52c-.15.22-.3.47-.45.74a5,5,0,0,1-.58.82l3.6,6.49a1.11,1.11,0,0,0,.42.44,3.11,3.11,0,0,0,.61.26l.94.31v.81Z" transform="translate(0 0)" fill="#d3d3d3"/><path d="M213.81,208.15a3.51,3.51,0,0,1-1.47-.3,3.59,3.59,0,0,1-1.86-2,3.88,3.88,0,0,1,0-2.87,4,4,0,0,1,.78-1.18,4.66,4.66,0,0,1,1.13-.87,7.18,7.18,0,0,1,1.33-.59,9.71,9.71,0,0,1,1.39-.34,8.68,8.68,0,0,1,1.31-.11l.35,0,.47,0,.47,0h.37v-2a6.63,6.63,0,0,0-.07-1.09,1.43,1.43,0,0,0-.27-.66,1,1,0,0,0-.51-.32,3,3,0,0,0-.8-.09,3.12,3.12,0,0,0-1.15.24,8.77,8.77,0,0,0-1.19.59,11.31,11.31,0,0,0-1.12.72l-.92.64h-.44l-.56-2.68c.31-.15.66-.29,1-.44a11.91,11.91,0,0,1,1.23-.38,11.21,11.21,0,0,1,1.4-.27,10.84,10.84,0,0,1,1.54-.11,9.38,9.38,0,0,1,1.95.21,5.47,5.47,0,0,1,1.77.73,3.75,3.75,0,0,1,1.77,3.42l-.08,6.81a.8.8,0,0,0,.07.36.63.63,0,0,0,.21.28,1.21,1.21,0,0,0,.36.18,1.8,1.8,0,0,0,.5.06,3.08,3.08,0,0,0,.47-.06,6.06,6.06,0,0,0,.64-.12h.27v1a3.36,3.36,0,0,1-.56.34,6.61,6.61,0,0,1-.84.37,9.36,9.36,0,0,1-1,.31,4.3,4.3,0,0,1-1,.12,5.49,5.49,0,0,1-1.11-.11,2.45,2.45,0,0,1-.89-.36,1.73,1.73,0,0,1-.59-.69,2.48,2.48,0,0,1-.21-1.08,5.46,5.46,0,0,1-1.07,1.22,4.84,4.84,0,0,1-1.14.67,4.27,4.27,0,0,1-1.1.29,8.49,8.49,0,0,1-.95.06m2.1-2.07a3.79,3.79,0,0,0,.58-.05,2.11,2.11,0,0,0,.59-.18,2.57,2.57,0,0,0,.54-.34,2.53,2.53,0,0,0,.46-.55l0-3.91a8,8,0,0,0-1.69.16,3.61,3.61,0,0,0-1.28.5,2.35,2.35,0,0,0-.82.87,2.65,2.65,0,0,0-.29,1.27,3,3,0,0,0,.17,1.07,2,2,0,0,0,.44.69,1.55,1.55,0,0,0,.6.36,2.29,2.29,0,0,0,.67.11" transform="translate(0 0)" fill="#d3d3d3"/><path d="M227.06,207.07l1.4-.44a1,1,0,0,0,.44-.29.71.71,0,0,0,.18-.5v-9.9h-1.72a1.13,1.13,0,0,0-.72.19,1.06,1.06,0,0,0-.36.46l-.89,2.22h-1.1v-4.24h13.26v4.24h-1.09l-.9-2.22a1.11,1.11,0,0,0-.35-.46,1.18,1.18,0,0,0-.73-.19h-1.72v9.9a.77.77,0,0,0,.17.51,1,1,0,0,0,.45.28l1.4.44v.81h-7.72Z" transform="translate(0 0)" fill="#d3d3d3"/><path d="M246,208.25a7.67,7.67,0,0,1-2.83-.5,5.88,5.88,0,0,1-2.12-1.41,6.48,6.48,0,0,1-1.34-2.21,8.51,8.51,0,0,1-.46-2.89,8,8,0,0,1,.46-2.75,6.23,6.23,0,0,1,3.51-3.76,7.57,7.57,0,0,1,3-.55,7.28,7.28,0,0,1,3,.59,5.93,5.93,0,0,1,2.1,1.55,6.33,6.33,0,0,1,1.22,2.24,8.86,8.86,0,0,1,.39,2.63,8,8,0,0,1-.46,2.74,6.43,6.43,0,0,1-1.34,2.24,6.29,6.29,0,0,1-2.17,1.52,7.44,7.44,0,0,1-3,.56m.18-1.39a2,2,0,0,0,1.43-.52,3.46,3.46,0,0,0,.85-1.32,7.23,7.23,0,0,0,.41-1.75,16.34,16.34,0,0,0,0-3.94,7.91,7.91,0,0,0-.49-1.89,3.74,3.74,0,0,0-.91-1.36,2,2,0,0,0-1.44-.52,2,2,0,0,0-1.41.51,3.52,3.52,0,0,0-.84,1.31,7.23,7.23,0,0,0-.41,1.75,14.28,14.28,0,0,0-.11,1.81,17.64,17.64,0,0,0,.11,2,8,8,0,0,0,.45,1.91,3.9,3.9,0,0,0,.91,1.44,2.05,2.05,0,0,0,1.49.56" transform="translate(0 0)" fill="#d3d3d3"/><path d="M254.27,207.06l1.36-.43a1,1,0,0,0,.44-.29.71.71,0,0,0,.18-.5V196.6a.71.71,0,0,0-.18-.5,1,1,0,0,0-.44-.28l-1.36-.44v-.81h8a10.24,10.24,0,0,1,2.35.22,4.17,4.17,0,0,1,1.45.59,2,2,0,0,1,.74.88,2.76,2.76,0,0,1,.21,1.07,3,3,0,0,1-.23,1.16,3.18,3.18,0,0,1-.71,1,4.92,4.92,0,0,1-1.19.79,8.23,8.23,0,0,1-1.66.6l.36,0a6.48,6.48,0,0,1,1.73.33,4.38,4.38,0,0,1,1.31.68,3.09,3.09,0,0,1,.83,1,2.77,2.77,0,0,1,.29,1.25,3.93,3.93,0,0,1-.21,1.34,3,3,0,0,1-.57,1,2.85,2.85,0,0,1-.86.68,5.07,5.07,0,0,1-1.09.44,7.2,7.2,0,0,1-1.26.22,11.78,11.78,0,0,1-1.34.07h-8.16Zm6.3-6.59a4.53,4.53,0,0,0,1.37-.27,2,2,0,0,0,.79-.49,1.53,1.53,0,0,0,.36-.69,3.73,3.73,0,0,0,.09-.84,3.46,3.46,0,0,0-.13-1,1.56,1.56,0,0,0-1.08-1.09,3.28,3.28,0,0,0-1-.13H259.9v4.59Zm.86,6a2.74,2.74,0,0,0,1.82-.52,2.14,2.14,0,0,0,.61-1.7,2.68,2.68,0,0,0-.63-2,2.9,2.9,0,0,0-2.09-.62H259.9v4.81Z" transform="translate(0 0)" fill="#d3d3d3"/><path d="M127,239l1.36-.44a1,1,0,0,0,.44-.28.74.74,0,0,0,.18-.51v-9.24a.71.71,0,0,0-.18-.5.93.93,0,0,0-.44-.28l-1.36-.44v-.81h11.6V231h-1.1l-1-2.46a1,1,0,0,0-.36-.45,1.12,1.12,0,0,0-.72-.2h-2.78v9.86a.77.77,0,0,0,.17.51,1,1,0,0,0,.45.28l1.4.44v.81H127Z" transform="translate(0 0)" fill="#d3d3d3"/><path d="M141.22,240.12a2.34,2.34,0,0,1-.91-.18,2.54,2.54,0,0,1-.74-.5,2.36,2.36,0,0,1-.5-.74,2.05,2.05,0,0,1-.19-.88,2.11,2.11,0,0,1,.19-.9,2.36,2.36,0,0,1,.5-.74,2.34,2.34,0,0,1,1.65-.67,2.25,2.25,0,0,1,.89.18,2.33,2.33,0,0,1,.74.49,2.51,2.51,0,0,1,.49.74,2.23,2.23,0,0,1,0,1.8,2.42,2.42,0,0,1-.49.72,2.54,2.54,0,0,1-.74.5,2.25,2.25,0,0,1-.89.18" transform="translate(0 0)" fill="#d3d3d3"/><path d="M154.19,239l1.74-.59a1,1,0,0,0,.46-.31.71.71,0,0,0,.19-.5V223a.79.79,0,0,0-.19-.54,1,1,0,0,0-.46-.29l-1.74-.49v-.84h7l3.86,10.7,1,2.8,4.88-13.5h7v.84l-1.74.49a1,1,0,0,0-.47.31.78.78,0,0,0-.17.52v14.61a.74.74,0,0,0,.17.52.92.92,0,0,0,.47.29l1.74.51v.84H169.2V239l1.75-.51a.89.89,0,0,0,.46-.29.8.8,0,0,0,.18-.52v-14l-.84,2.53L167,236.66l-1.43,3.15h-1.44l-4.92-13.6-.86-2.58v13.94a.72.72,0,0,0,.18.51,1.23,1.23,0,0,0,.47.3l1.74.59v.84h-6.51Z" transform="translate(0 0)" fill="#d3d3d3"/><path d="M185.65,240.18a7.67,7.67,0,0,1-2.83-.5,5.88,5.88,0,0,1-2.12-1.41,6.24,6.24,0,0,1-1.34-2.21,8.46,8.46,0,0,1-.47-2.89,8.27,8.27,0,0,1,.46-2.75,6.56,6.56,0,0,1,1.35-2.25,6.36,6.36,0,0,1,2.17-1.51,7.57,7.57,0,0,1,2.95-.55,7.28,7.28,0,0,1,3.05.59,5.93,5.93,0,0,1,2.1,1.55,6.15,6.15,0,0,1,1.21,2.24,8.91,8.91,0,0,1,.39,2.63,8.25,8.25,0,0,1-.45,2.74,6.43,6.43,0,0,1-1.34,2.24,6.24,6.24,0,0,1-2.18,1.52,7.39,7.39,0,0,1-2.95.56m.18-1.39a2,2,0,0,0,1.43-.52,3.46,3.46,0,0,0,.85-1.32,7.12,7.12,0,0,0,.41-1.75c.06-.64.1-1.24.1-1.82a16.65,16.65,0,0,0-.14-2.12,7.91,7.91,0,0,0-.49-1.89,3.75,3.75,0,0,0-.92-1.36,2,2,0,0,0-1.43-.52,2,2,0,0,0-1.41.51,3.52,3.52,0,0,0-.84,1.31,7.35,7.35,0,0,0-.42,1.75,16.4,16.4,0,0,0-.11,1.81,17.72,17.72,0,0,0,.12,2,8,8,0,0,0,.45,1.91,4,4,0,0,0,.9,1.44,2.09,2.09,0,0,0,1.5.56" transform="translate(0 0)" fill="#d3d3d3"/><path d="M200.45,240.11a6,6,0,0,1-2.57-.53,5.43,5.43,0,0,1-1.87-1.43,6.27,6.27,0,0,1-1.14-2.08,7.93,7.93,0,0,1-.38-2.5,9.21,9.21,0,0,1,.19-1.9,7.19,7.19,0,0,1,.62-1.74,6.68,6.68,0,0,1,1-1.51,5.94,5.94,0,0,1,1.44-1.19,7.42,7.42,0,0,1,1.88-.78,8.68,8.68,0,0,1,2.3-.28,7.49,7.49,0,0,1,1.32.11,6.53,6.53,0,0,1,1.06.27,5.37,5.37,0,0,1,.82.33l.61.32-.57,2.72h-.46c-.33-.25-.68-.49-1.06-.73a12.93,12.93,0,0,0-1.13-.64,6.47,6.47,0,0,0-1.12-.46,3.33,3.33,0,0,0-1-.18,1,1,0,0,0-.58.2,3.38,3.38,0,0,0-.61.66,2.1,2.1,0,0,0-.32.57,5.71,5.71,0,0,0-.27.85,7.8,7.8,0,0,0-.2,1.12,11.1,11.1,0,0,0-.08,1.34,10.34,10.34,0,0,0,.22,2.27,4.54,4.54,0,0,0,.71,1.67,3.06,3.06,0,0,0,1.25,1,4.3,4.3,0,0,0,1.85.36,3.83,3.83,0,0,0,1-.13,5.27,5.27,0,0,0,.9-.33,6.48,6.48,0,0,0,.75-.41l.6-.38H206v1.06a12.13,12.13,0,0,1-1,.81,10.5,10.5,0,0,1-1.28.75,8.7,8.7,0,0,1-1.51.55,6.8,6.8,0,0,1-1.69.21" transform="translate(0 0)" fill="#d3d3d3"/><path d="M219.15,240a3.23,3.23,0,0,1-.73,0,1.39,1.39,0,0,1-.54-.19,1.57,1.57,0,0,1-.42-.4,4.56,4.56,0,0,1-.4-.66l-2.32-4.58-1.62-.37v4.05a.68.68,0,0,0,.18.5,1.4,1.4,0,0,0,.44.29l1,.44v.81h-7.29V239l1.36-.44a1.07,1.07,0,0,0,.44-.28.73.73,0,0,0,.17-.51v-9.24a.71.71,0,0,0-.17-.5,1,1,0,0,0-.44-.28l-1.36-.44v-.81h7.29v.81l-1,.44a1.25,1.25,0,0,0-.44.29.66.66,0,0,0-.18.49v4.11h.74a3,3,0,0,0,1-.15,1.83,1.83,0,0,0,.78-.51,4,4,0,0,0,.65-1c.18-.41.35-.83.51-1.25s.31-.84.46-1.23a3.57,3.57,0,0,1,.54-1,3.91,3.91,0,0,1,.58-.62,3,3,0,0,1,.59-.38,2.39,2.39,0,0,1,.62-.21,3.74,3.74,0,0,1,.68-.06,7.62,7.62,0,0,1,.87.06c.34,0,.64.08.92.13l-.62,3.05h-.26l-.42-.09-.44-.09-.4-.06-.31,0a1.34,1.34,0,0,0-.79.2,2,2,0,0,0-.52.53,7,7,0,0,0-.44.73,5,5,0,0,1-.58.82l3.6,6.49a1.11,1.11,0,0,0,.42.44,2.87,2.87,0,0,0,.61.26l.93.31v.81Z" transform="translate(0 0)" fill="#d3d3d3"/><path d="M224.23,239l1.36-.44a1.07,1.07,0,0,0,.44-.28.78.78,0,0,0,.17-.5v-9.25a.76.76,0,0,0-.17-.5,1,1,0,0,0-.44-.28l-1.36-.44v-.81h8a10.12,10.12,0,0,1,2.35.22,4.22,4.22,0,0,1,1.46.6,2,2,0,0,1,.74.88,2.67,2.67,0,0,1,.21,1.06,2.83,2.83,0,0,1-.24,1.16,2.89,2.89,0,0,1-.71,1,4.87,4.87,0,0,1-1.18.8,8.76,8.76,0,0,1-1.67.59l.36,0a7.28,7.28,0,0,1,1.73.33,4.07,4.07,0,0,1,1.31.69,2.93,2.93,0,0,1,.84,1,2.7,2.7,0,0,1,.28,1.25,3.91,3.91,0,0,1-.2,1.33,3.21,3.21,0,0,1-.57,1,3.36,3.36,0,0,1-.86.68,5.63,5.63,0,0,1-1.09.43,7.2,7.2,0,0,1-1.26.23q-.66.06-1.35.06h-8.15Zm6.3-6.59a5.33,5.33,0,0,0,1.37-.27,2.24,2.24,0,0,0,.79-.5,1.45,1.45,0,0,0,.36-.68,3.82,3.82,0,0,0,.09-.85,3.46,3.46,0,0,0-.13-1,1.55,1.55,0,0,0-1.09-1.09,3.55,3.55,0,0,0-1-.13h-1.07v4.59Zm.85,6a2.73,2.73,0,0,0,1.82-.52,2.11,2.11,0,0,0,.61-1.7,2.68,2.68,0,0,0-.62-2,2.9,2.9,0,0,0-2.1-.62h-1.23v4.8Z" transform="translate(0 0)" fill="#d3d3d3"/><path d="M239.23,239l1.36-.44a1.07,1.07,0,0,0,.44-.28.78.78,0,0,0,.17-.51v-9.24a.76.76,0,0,0-.17-.5,1,1,0,0,0-.44-.28l-1.36-.44v-.81h7.63v.81l-1.38.44a1,1,0,0,0-.47.29.74.74,0,0,0-.15.49v3.15h2a10.79,10.79,0,0,1,2,.17,4.77,4.77,0,0,1,1.69.61,3.26,3.26,0,0,1,1.17,1.19,3.85,3.85,0,0,1,.44,1.93,4,4,0,0,1-.45,2,3.72,3.72,0,0,1-1.21,1.31,5.08,5.08,0,0,1-1.73.73,8.91,8.91,0,0,1-2,.23h-7.52Zm6.77-.57a2.31,2.31,0,0,0,1-.2,1.93,1.93,0,0,0,.73-.57,2.56,2.56,0,0,0,.44-.89,4.25,4.25,0,0,0,.15-1.17,2.86,2.86,0,0,0-.59-1.93A2.27,2.27,0,0,0,246,233h-1.11v5.42Zm6.21.57,1-.44a1.53,1.53,0,0,0,.44-.29.68.68,0,0,0,.18-.5v-9.24a.71.71,0,0,0-.18-.5,1,1,0,0,0-.44-.28l-1.36-.44v-.81h7.64v.81l-1.36.44a.93.93,0,0,0-.44.28.71.71,0,0,0-.18.5v9.24a.74.74,0,0,0,.18.51,1,1,0,0,0,.44.28l1.36.44v.81h-7.32Z" transform="translate(0 0)" fill="#d3d3d3"/></g></svg>