<svg xmlns="http://www.w3.org/2000/svg" xmlns:xlink="http://www.w3.org/1999/xlink" viewBox="0 0 363.85 444.25"><defs><clipPath id="a" transform="translate(0 0)"><rect width="363.85" height="444.25" fill="none"/></clipPath></defs><g clip-path="url(#a)"><path d="M181.92,444.25l-6.27-2C50.88,402.13,0,358.42,0,291.36V0H363.85V291.36c0,67.06-50.89,110.77-175.63,150.89ZM15.59,15.59V291.36c0,43.13,20,89.47,164.81,136.05l1.52.48,1.55-.49c144.82-46.57,164.79-92.91,164.79-136V15.59Z" transform="translate(0 0)" fill="#f1f1f0"/><path d="M62.76,160H59.5c-7.34,18.47-18.94,30.78-28.41,33.62v3.08H77v-3.08c-13.5-2.37-21.13-16.81-14.26-33.62" transform="translate(0 0)" fill="#f1f1f0"/><polygon points="196.12 193.64 120.35 30.98 111.35 30.98 100.13 58.91 101.88 62.47 138.58 142.03 109.39 142.03 108.21 145.1 140 145.1 162.26 193.64 148.53 193.64 148.53 196.72 211.03 196.72 211.03 193.64 196.12 193.64" fill="#f1f1f0"/><path d="M184,263.91h2.84V204.48h-56v5h2.43c37.56.27,46.48,22.92,50.72,54.46" transform="translate(0 0)" fill="#f1f1f0"/><path d="M184.49,334.43c-7.35,9.24-20.13,22.5-49.73,22.5-36,0-69.37-23-72-68.43-3-48,23.6-74.46,52.52-79.4v-4.52c-42.86,1.78-86.37,28.81-86.37,83.92,0,54.69,44.51,84.06,90,84.06,39.07,0,58.72-20.37,68.43-36Z" transform="translate(0 0)" fill="#f1f1f0"/><path d="M316.34,121.58h2.84V62.15H241.07v5H265c38.12,0,47.12,22.73,51.38,54.45" transform="translate(0 0)" fill="#f1f1f0"/><path d="M270.13,139.58H241.07v3.08h15.32c20.36,0,44.28,6.15,44.28,40.48s-21.78,39.54-42.38,39.54H225.61V128.92L225.55,77V62.15H177.31v3.08H194.6V224.81H179.21v3.08h83.58c39.06,0,70.08-8,70.08-44.75,0-30.3-25.95-43.56-62.74-43.56" transform="translate(0 0)" fill="#f1f1f0"/></g></svg>