<svg width="0" height="0" class="hidden">
  <symbol fill="none" xmlns="http://www.w3.org/2000/svg" viewBox="0 0 7 10" id="ic_arr_hor">
    <path d="M1 1L5 5L1 9" stroke="currentColor" stroke-width="2"></path>
  </symbol>
  <symbol xmlns="http://www.w3.org/2000/svg" viewBox="0 0 11.8 7.81" id="ic_arr_ver">
    <path d="M9.79,1,5.9,6.15,2,1H9.79ZM5.9,0H0L5.9,7.81,11.8,0Z" fill="currentColor"></path>
  </symbol>
  <symbol xmlns="http://www.w3.org/2000/svg" viewBox="0 0 32.35 21" id="ic_arrow_hor">
    <path d="M19.46,10.5V2L30.69,10.5,19.45,19ZM18.45,0V21l13.9-10.5h0Z" fill="currentColor"></path>
    <rect y="10" width="18.45" height="1" fill="currentColor"></rect>
  </symbol>
  <symbol xmlns="http://www.w3.org/2000/svg" viewBox="0 0 32.35 21" id="ic_arrow_hor_h">
    <polygon points="18.45 0 18.46 10.5 18.45 21 32.35 10.5 32.35 10.5 18.45 0" fill="currentColor"></polygon>
    <rect y="10" width="18.45" height="1" fill="currentColor"></rect>
  </symbol>
  <symbol xmlns="http://www.w3.org/2000/svg" xmlns:xlink="http://www.w3.org/1999/xlink" viewBox="0 0 18.84 20.09" id="ic_callback">
    <path d="M17.92,18A1,1,0,0,0,18,16.44l-3.2-3a.94.94,0,0,0-.61-.26,1,1,0,0,0-.71.24l-.72.66a2.2,2.2,0,0,1-2.79,0L6,9.73A2.21,2.21,0,0,1,6,6.92c.24-.22.64-.66.88-.87a1,1,0,0,0,.33-.69A1,1,0,0,0,7,4.66L4.15.91A1,1,0,0,0,3.4.5a1,1,0,0,0-.83.36L2.51.94a7.89,7.89,0,0,0-2,4.13c-.23,4.25,8.74,14.25,13,14.49A6,6,0,0,0,17.92,18Z" transform="translate(0 0)" fill="none" stroke="currentColor" stroke-miterlimit="10"></path>
    <line x1="13.54" y1="4.52" x2="10.87" y2="7.2" fill="none" stroke="currentColor" stroke-linecap="round" stroke-linejoin="round"></line>
    <line x1="13.54" y1="9.87" x2="10.87" y2="7.2" fill="none" stroke="currentColor" stroke-linecap="round" stroke-linejoin="round"></line>
    <line x1="10.87" y1="7.2" x2="18.34" y2="7.2" fill="none" stroke="currentColor" stroke-linecap="round" stroke-linejoin="round"></line>
  </symbol>
  <symbol xmlns="http://www.w3.org/2000/svg" viewBox="0 0 17.72 17.72" id="ic_close">
    <polygon points="17.02 0 8.86 8.15 0.71 0 0 0.71 8.15 8.86 0 17.02 0.71 17.72 8.86 9.57 17.02 17.72 17.72 17.02 17.72 17.01 9.57 8.86 17.72 0.71 17.72 0.71 17.02 0" fill="currentColor"></polygon>
  </symbol>
  <symbol xmlns="http://www.w3.org/2000/svg" xmlns:xlink="http://www.w3.org/1999/xlink" viewBox="0 0 19 15" id="ic_email">
    <path d="M17,1a1,1,0,0,1,1,1V13a1,1,0,0,1-1,1H2a1,1,0,0,1-1-1V2A1,1,0,0,1,2,1H17m0-1H2A2,2,0,0,0,0,2V13a2,2,0,0,0,2,2H17a2,2,0,0,0,2-2V2a2,2,0,0,0-2-2" fill="currentColor"></path>
    <line x1="1.14" y1="1.22" x2="9.5" y2="7.63" fill="none" stroke="currentColor" stroke-linecap="round" stroke-linejoin="round"></line>
    <line x1="17.85" y1="1.29" x2="9.5" y2="7.63" fill="none" stroke="currentColor" stroke-linecap="round" stroke-linejoin="round"></line>
    <line x1="3" y1="9.5" x2="5.5" y2="9.5" fill="none" stroke="currentColor" stroke-linecap="round" stroke-linejoin="round"></line>
    <line x1="3" y1="11.5" x2="5.5" y2="11.5" fill="none" stroke="currentColor" stroke-linecap="round" stroke-linejoin="round"></line>
  </symbol>
  <symbol xmlns="http://www.w3.org/2000/svg" viewBox="0 0 17 20" id="ic_file">
    <path d="M1,1H5V5H1ZM1,6H6V1H16V19H1ZM0,0V20H17V0Z" fill="currentColor"></path>
    <rect x="4" y="9" width="9" height="1" fill="currentColor"></rect>
    <rect x="4" y="12" width="9" height="1" fill="currentColor"></rect>
  </symbol>
  <symbol fill="none" xmlns="http://www.w3.org/2000/svg" viewBox="0 0 14 20" id="ic_input_phone">
    <rect x="1" y="1" width="12" height="18" rx="3" stroke="currentColor" stroke-width="2"></rect>
    <rect x="5" y="15" width="4" height="2" rx="1" fill="currentColor"></rect>
  </symbol>
  <symbol fill="none" xmlns="http://www.w3.org/2000/svg" viewBox="0 0 18 21" id="ic_input_user">
    <path d="M17 17C17 18.1338 16.766 18.6522 16.5441 18.9027C16.3347 19.1392 15.9805 19.3121 15.2852 19.3671C14.5771 19.423 13.7019 19.3445 12.6022 19.2351C12.555 19.2305 12.5076 19.2257 12.4598 19.221C11.4263 19.1179 10.2436 19 9 19C7.7564 19 6.57372 19.1179 5.54022 19.221C5.49244 19.2257 5.44498 19.2305 5.39784 19.2351C4.2981 19.3445 3.42288 19.423 2.7148 19.3671C2.01945 19.3121 1.66529 19.1392 1.45589 18.9027C1.23404 18.6522 1 18.1338 1 17C1 12.5817 4.58172 9 9 9C13.4183 9 17 12.5817 17 17Z" stroke="currentColor" stroke-width="2"></path>
    <circle cx="9" cy="5" r="4" stroke="currentColor" stroke-width="2"></circle>
  </symbol>
  <symbol xmlns="http://www.w3.org/2000/svg" xmlns:xlink="http://www.w3.org/1999/xlink" viewBox="0 0 26.1 16.31" id="ic_link">
    <path d="M16.79,2l7.65,5.78-7.65,5.78V10.39H8a10.57,10.57,0,0,0-5.56,1.46,11.55,11.55,0,0,1,8.09-6.47,39.38,39.38,0,0,1,4-.18h2.27V2m-1-2V4.21H14.52s-3.07,0-4.2.19c-5,.8-8.91,5.43-10,10.46-.13.54-.21,1.06-.25,1.3.22-1,2.23-4.76,7.93-4.76h.11l7.73,0v4.19L26.1,7.79ZM0,16.16a1.37,1.37,0,0,0,0,.16s0-.06,0-.16" fill="currentColor"></path>
  </symbol>
  <symbol xmlns="http://www.w3.org/2000/svg" xmlns:xlink="http://www.w3.org/1999/xlink" viewBox="0 0 16 20.49" id="ic_location">
    <path d="M8.16,1a6.47,6.47,0,0,1,1.7.28A7.06,7.06,0,0,1,15,8.06c0,2.57-2.07,4.87-4.08,7.1A26,26,0,0,0,8,18.83a26,26,0,0,0-2.92-3.67C3.07,12.93,1,10.63,1,8.06A7.06,7.06,0,0,1,6.14,1.28,6.47,6.47,0,0,1,7.84,1h.32m0-1H7.84a7.57,7.57,0,0,0-2,.32A8,8,0,0,0,0,8.06c0,4.82,5.94,8.37,7.6,12.16a.43.43,0,0,0,.8,0C10.06,16.43,16,12.88,16,8.06A8,8,0,0,0,10.13.32a7.57,7.57,0,0,0-2-.32" fill="currentColor"></path>
    <path d="M8,5.23A2.75,2.75,0,1,1,5.25,8,2.75,2.75,0,0,1,8,5.23m0-1A3.75,3.75,0,1,0,11.75,8,3.74,3.74,0,0,0,8,4.23" fill="currentColor"></path>
  </symbol>
  <symbol xmlns="http://www.w3.org/2000/svg" xmlns:xlink="http://www.w3.org/1999/xlink" viewBox="0 0 18.84 20.09" id="ic_phone">
    <path d="M17.92,18A1,1,0,0,0,18,16.44l-3.2-3a.94.94,0,0,0-.61-.26,1,1,0,0,0-.71.24l-.72.66a2.2,2.2,0,0,1-2.79,0L6,9.73A2.21,2.21,0,0,1,6,6.92c.24-.22.64-.66.88-.87a1,1,0,0,0,.33-.69A1,1,0,0,0,7,4.66L4.15.91A1,1,0,0,0,3.4.5a1,1,0,0,0-.83.36L2.51.94a7.89,7.89,0,0,0-2,4.13c-.23,4.25,8.74,14.25,13,14.49A6,6,0,0,0,17.92,18Z" fill="none" stroke="currentColor" stroke-miterlimit="10"></path>
  </symbol>
  <symbol xmlns="http://www.w3.org/2000/svg" xmlns:xlink="http://www.w3.org/1999/xlink" viewBox="0 0 69.62 50" id="ic_service1">
    <defs>
      <clipPath id="a">
        <rect width="69.62" height="50" fill="none"></rect>
      </clipPath>
    </defs>
    <g clip-path="url(#a)">
      <path d="M62,24.64a7.92,7.92,0,1,0-7.83,0,12.09,12.09,0,0,0-3,1.47,13.8,13.8,0,0,0-8.61-7.69,9.86,9.86,0,1,0-9.75,0A14.48,14.48,0,0,0,26,23a14.46,14.46,0,0,0-6.76-4.57,9.86,9.86,0,1,0-9.74,0C4,20.22,0,25,0,30.62V50H69.62V34.44c0-4.52-3.19-8.35-7.64-9.8m-9.83-6.88a5.92,5.92,0,1,1,5.91,5.92,5.92,5.92,0,0,1-5.91-5.92M29.79,9.86a7.86,7.86,0,1,1,8.63,7.82c-.26,0-.51,0-.77,0s-.52,0-.78,0a7.87,7.87,0,0,1-7.08-7.82m-23.26,0a7.86,7.86,0,1,1,8.63,7.82c-.25,0-.51,0-.77,0s-.51,0-.77,0A7.88,7.88,0,0,1,6.53,9.86M25.25,48H2V30.62C2,24.8,7.14,20,13.61,19.68q.39,0,.78,0t.78,0a12.73,12.73,0,0,1,9.66,5A10.7,10.7,0,0,1,26,26.86a9.75,9.75,0,0,1,.76,3.76V48Zm2-23.28a12.73,12.73,0,0,1,9.66-5c.26,0,.51,0,.78,0s.52,0,.78,0c5.24.29,9.61,3.47,11.08,7.77A9.9,9.9,0,0,1,50,29.94c0,.23,0,.45,0,.68V48H28.78V30.62a12,12,0,0,0-1.57-5.9M67.62,48H52V30.62a11.54,11.54,0,0,0-.28-2.5A10.31,10.31,0,0,1,58.06,26c5.27,0,9.56,3.78,9.56,8.43Z" fill="currentColor"></path>
    </g>
  </symbol>
  <symbol xmlns="http://www.w3.org/2000/svg" xmlns:xlink="http://www.w3.org/1999/xlink" viewBox="0 0 61 50" id="ic_service2">
    <defs>
      <clipPath id="a">
        <rect width="61" height="50" fill="none"></rect>
      </clipPath>
    </defs>
    <g clip-path="url(#a)">
      <path d="M36,0a25.54,25.54,0,0,0-5.5.61A25.54,25.54,0,0,0,25,0a25,25,0,0,0,0,50,25.54,25.54,0,0,0,5.5-.61A25.54,25.54,0,0,0,36,50,25,25,0,0,0,36,0M26.13,48c-.38,0-.75,0-1.13,0A23,23,0,0,1,25,2c.38,0,.75,0,1.13,0a22.47,22.47,0,0,1,4.37.64,23,23,0,0,1,0,44.66,22.47,22.47,0,0,1-4.37.64M36,48c-.38,0-.75,0-1.13,0A25,25,0,0,0,34.87,2c.38,0,.75,0,1.13,0a23,23,0,0,1,0,46" fill="currentColor"></path>
      <path d="M22.88,17.41a4.94,4.94,0,1,0-4.94,4.94,4.94,4.94,0,0,0,4.94-4.94m-7.88,0a2.94,2.94,0,1,1,2.94,2.94A2.94,2.94,0,0,1,15,17.41" fill="currentColor"></path>
      <path d="M37,32.59a4.94,4.94,0,1,0-4.94,4.94A4.94,4.94,0,0,0,37,32.59m-7.88,0a2.94,2.94,0,1,1,2.94,2.94,2.94,2.94,0,0,1-2.94-2.94" fill="currentColor"></path>
      <path d="M32.59,14.66a1,1,0,0,0-1.4.22l-14,19.06a1,1,0,0,0,1.62,1.18l14-19.06a1,1,0,0,0-.21-1.4" fill="currentColor"></path>
    </g>
  </symbol>
  <symbol xmlns="http://www.w3.org/2000/svg" xmlns:xlink="http://www.w3.org/1999/xlink" viewBox="0 0 57.39 50" id="ic_service3">
    <defs>
      <clipPath id="a">
        <rect width="57.39" height="50" fill="none"></rect>
      </clipPath>
    </defs>
    <g clip-path="url(#a)">
      <path d="M50.68,6.58H41A6.7,6.7,0,0,0,34.31,0H23.08a6.7,6.7,0,0,0-6.7,6.58H6.71A6.7,6.7,0,0,0,0,13.28v30A6.7,6.7,0,0,0,6.71,50h44a6.7,6.7,0,0,0,6.71-6.71v-30a6.7,6.7,0,0,0-6.71-6.7M23.08,2H34.31A4.7,4.7,0,0,1,39,6.58H18.38A4.71,4.71,0,0,1,23.08,2M6.71,8.58h44a4.71,4.71,0,0,1,4.71,4.7v9H2v-9a4.71,4.71,0,0,1,4.71-4.7M24,24.29H33.4v2.28a4.71,4.71,0,0,1-9.41,0ZM50.68,48h-44A4.71,4.71,0,0,1,2,43.29v-19H22v2.28a6.71,6.71,0,0,0,13.41,0V24.29h20v19A4.71,4.71,0,0,1,50.68,48" fill="currentColor"></path>
    </g>
  </symbol>
  <symbol xmlns="http://www.w3.org/2000/svg" xmlns:xlink="http://www.w3.org/1999/xlink" viewBox="0 0 61.6 50" id="ic_service4">
    <defs>
      <clipPath id="a">
        <rect width="61.6" height="50" fill="none"></rect>
      </clipPath>
    </defs>
    <g clip-path="url(#a)">
      <path d="M61.6,26.06,53.38,9.61a3.82,3.82,0,0,0,.79-2.32,3.86,3.86,0,0,0-7.59-1H38a7.29,7.29,0,0,0-14.44,0H15a3.86,3.86,0,1,0-6.8,3.32L0,26.06H0v1.07a11.3,11.3,0,0,0,22.6,0V26.06h0L14.38,9.61A3.86,3.86,0,0,0,15,8.29h8.56a7.29,7.29,0,0,0,6.22,6.22V41.34H28.16A8.66,8.66,0,0,0,19.5,50H42.1a8.66,8.66,0,0,0-8.66-8.66H31.8V14.51A7.29,7.29,0,0,0,38,8.29h8.56a3.86,3.86,0,0,0,.64,1.32L39,26.06h0v1.07a11.3,11.3,0,0,0,22.6,0V26.06ZM39.79,48h-18a6.67,6.67,0,0,1,6.35-4.66h5.28A6.67,6.67,0,0,1,39.79,48M50.3,5.43a1.87,1.87,0,1,1-1.87,1.86A1.87,1.87,0,0,1,50.3,5.43m-39,0A1.87,1.87,0,1,1,9.43,7.29,1.87,1.87,0,0,1,11.3,5.43m0,31a9.31,9.31,0,0,1-9.25-8.36h18.5a9.31,9.31,0,0,1-9.25,8.36M2.24,26.06,9.82,10.87a4.06,4.06,0,0,0,1.48.29,4,4,0,0,0,1.47-.29l7.59,15.19ZM30.8,12.59a5.3,5.3,0,1,1,5.29-5.3,5.31,5.31,0,0,1-5.29,5.3m18-1.72a4.06,4.06,0,0,0,1.48.29,4,4,0,0,0,1.47-.29l7.59,15.19H41.24ZM50.3,36.42a9.31,9.31,0,0,1-9.25-8.36h18.5a9.31,9.31,0,0,1-9.25,8.36" fill="currentColor"></path>
    </g>
  </symbol>
  <symbol xmlns="http://www.w3.org/2000/svg" xmlns:xlink="http://www.w3.org/1999/xlink" viewBox="0 0 72.25 50" id="ic_service5">
    <defs>
      <clipPath id="a">
        <rect width="72.25" height="50" fill="none"></rect>
      </clipPath>
    </defs>
    <g clip-path="url(#a)">
      <path d="M64.61,24.65a7.91,7.91,0,1,0-8-13.66V0H15.52V10.93A7.91,7.91,0,1,0,7.64,24.65,10.53,10.53,0,0,0,0,34.44V50H23.11V44.54a57.41,57.41,0,0,0,12.25,5.24l.71.22.71-.22a56.75,56.75,0,0,0,12.36-5.31V50H72.25V34.44a10.53,10.53,0,0,0-7.64-9.79M60.7,11.86a5.92,5.92,0,1,1-4.07,10.19V13.49a5.88,5.88,0,0,1,4.07-1.63M5.64,17.77a5.91,5.91,0,0,1,9.88-4.38v8.76a5.9,5.9,0,0,1-9.88-4.38M21.11,48H2V34.44C2,29.8,6.29,26,11.55,26a10.56,10.56,0,0,1,4,.77v6c0,4.12,1.73,7.46,5.59,10.37Zm15.06-.13-.1,0-.09,0C30,46,25.88,44,23.11,42.14a19.65,19.65,0,0,1-2-1.55,9.69,9.69,0,0,1-3.59-7.79V2H54.63V32.8a9.67,9.67,0,0,1-3.49,7.68,17.47,17.47,0,0,1-2,1.59c-2.77,1.91-6.88,3.85-13,5.8M70.25,48H51.14V43.09c3.78-2.9,5.49-6.21,5.49-10.29v-6A10.63,10.63,0,0,1,60.7,26c5.27,0,9.55,3.78,9.55,8.42Z" fill="currentColor"></path>
      <path d="M46.72,16.93a1,1,0,0,0-.7.29l-10,10-5.41-5.41a1,1,0,0,0-.71-.29,1,1,0,0,0-.71.29,1,1,0,0,0,0,1.42l6.12,6.11a1,1,0,0,0,1.41,0L47.43,18.63a1,1,0,0,0,0-1.41,1,1,0,0,0-.71-.29" fill="currentColor"></path>
    </g>
  </symbol>
  <symbol xmlns="http://www.w3.org/2000/svg" xmlns:xlink="http://www.w3.org/1999/xlink" viewBox="0 0 80.26 50" id="ic_service6">
    <defs>
      <clipPath id="a">
        <rect width="80.26" height="50" fill="none"></rect>
      </clipPath>
    </defs>
    <g clip-path="url(#a)">
      <path d="M46,17.22l-10,10-5.41-5.41a1,1,0,0,0-1.42,0,1,1,0,0,0,0,1.42l6.12,6.11a1,1,0,0,0,1.41,0L47.43,18.63A1,1,0,1,0,46,17.22" fill="currentColor"></path>
      <path d="M63.12,15.71A17.07,17.07,0,0,0,56.63,17V0H15.52V10.93A7.91,7.91,0,1,0,7.64,24.65,10.53,10.53,0,0,0,0,34.44V50H23.11V44.54a57.3,57.3,0,0,0,12.26,5.24l.7.22.71-.22A52.78,52.78,0,0,0,50,43.9,17.14,17.14,0,1,0,63.12,15.71M5.64,17.77a5.91,5.91,0,0,1,9.88-4.38v8.76a5.9,5.9,0,0,1-9.88-4.38M21.11,48H2V34.44C2,29.8,6.29,26,11.55,26a10.56,10.56,0,0,1,4,.77v6c0,4.12,1.73,7.46,5.59,10.37Zm27.7-5.71a51.14,51.14,0,0,1-12.64,5.58l-.1,0-.09,0C30,46,25.88,44,23.11,42.14a19.65,19.65,0,0,1-2-1.55,9.69,9.69,0,0,1-3.59-7.79V2H54.63V32.8c0,2.67-.71,5.45-4.2,8.3a19,19,0,0,1-1.62,1.19M63.12,48a15.11,15.11,0,0,1-11.49-5.3,12.56,12.56,0,0,0,4.7-7.13h2.93v2H56.68a1,1,0,0,0,0,2h2.58v3a1,1,0,0,0,2,0v-3h2.59a1,1,0,0,0,0-2H61.26v-2h4.06a6.71,6.71,0,1,0,0-13.42H59.26V33.57H56.59c0-.26,0-.51,0-.77V19.19A15.11,15.11,0,0,1,78.26,32.85,15.16,15.16,0,0,1,63.12,48M61.26,33.57V24.15h4.06a4.71,4.71,0,1,1,0,9.42Z" fill="currentColor"></path>
    </g>
  </symbol>
  <symbol xmlns="http://www.w3.org/2000/svg" xmlns:xlink="http://www.w3.org/1999/xlink" viewBox="0 0 60.15 50" id="ic_service7">
    <defs>
      <clipPath id="a">
        <rect width="60.15" height="50" fill="none"></rect>
      </clipPath>
    </defs>
    <g clip-path="url(#a)">
      <path d="M59.73,14.82a4.63,4.63,0,0,0-4.2-2.8h-.21l-1.22.07A24.53,24.53,0,0,0,43,3.58,32.2,32.2,0,0,0,33,1.5q-1.12-.06-2.28-.06L29,1.47a26.93,26.93,0,0,0-4.93.64l-.77.19A16.71,16.71,0,0,0,14.83,0h-.52c-.45,0-.77,0-1,.06A3.55,3.55,0,0,0,12,.44,4.13,4.13,0,0,0,9.71,5.5l1.43,4.36c-.29.34-.55.69-.8,1a36.35,36.35,0,0,0-2.62,4.36C6.78,17,6.17,18.09,5.5,18.36l-.06,0-.17.06-.38.14c-1.67.63-5.6,2.1-4.78,6.18l.18.91c.69,3.53,1.16,5.76,1.47,6.69l.17.55a6.27,6.27,0,0,0,3,4.16,8.43,8.43,0,0,0,3.09,1c.34.07.83.16,1.05.22a3.26,3.26,0,0,0,.68.25c.8.18,1.44.27,2,.35a6,6,0,0,1,.87.16,8.71,8.71,0,0,1,1.62,2.42l.06.1A29.69,29.69,0,0,1,16,45.15l.34.86c.23.58.33.84.45,1.07A5.3,5.3,0,0,0,21.92,50h3.45c2.21,0,4.45-1.64,4.45-5.32V43.47h6.09v1.21c0,3.68,2.2,5.32,4.37,5.32h3.24a5.12,5.12,0,0,0,5-3c.11-.25.21-.53.44-1.14.07-.2.16-.42.24-.66a38.2,38.2,0,0,1,4.35-6.92A20.15,20.15,0,0,0,58.44,25.1a20.72,20.72,0,0,0-.41-4c.21-.26.45-.54.74-.85a5,5,0,0,0,1-5.4m-2.45,4.05c-.27.31-.53.61-.8.95l-.59.72.18.92a18.38,18.38,0,0,1-4,15.59,39.84,39.84,0,0,0-4.58,7.28l0,.1,0,.11-.25.66c-.2.54-.3.81-.37,1C46.36,47,45.63,48,43.52,48H40.28c-1.14,0-2.37-.87-2.37-3.32V41.47H27.82v3.21c0,2.08-.92,3.32-2.45,3.32H21.92c-2.19,0-3-1-3.39-1.82-.06-.13-.16-.37-.33-.81l0-.1L18,45l-.24-.61A30,30,0,0,0,16,40.53L16,40.46c-1.22-2.2-1.81-2.79-2.19-3.06l-.18-.13-.2-.09A5.4,5.4,0,0,0,12,36.89c-.51-.07-1.08-.16-1.81-.33a.79.79,0,0,1-.23-.08l-.17-.08-.18,0a12,12,0,0,0-1.23-.26A7.2,7.2,0,0,1,6,35.4c-1.5-1-1.67-1.46-2.2-3.1l-.19-.56c-.3-.91-.86-3.69-1.4-6.45l-.18-.91c-.35-1.76.6-2.82,3.53-3.92L6,20.32l.15-.06.1,0c1.39-.55,2.17-2,3.24-4A35.42,35.42,0,0,1,12,12.07c.24-.33.48-.65.72-.94l.7-.85-.34-1L11.61,4.88a2.12,2.12,0,0,1,1.18-2.6l.08,0,.07,0a1.67,1.67,0,0,1,.58-.16l.83,0h.48A14.81,14.81,0,0,1,22.3,4l.71.42.8-.2.71-.18a24.63,24.63,0,0,1,4.57-.59l1.6,0c.71,0,1.44,0,2.17.06a30.42,30.42,0,0,1,9.36,1.94,22.69,22.69,0,0,1,10.26,7.82l.64.88,1.09-.05L55.4,14h.15a2.66,2.66,0,0,1,2.36,1.61,3,3,0,0,1-.63,3.24" fill="currentColor"></path>
      <path d="M19.47,17.93a3.58,3.58,0,0,0-3.14,1.41,7.44,7.44,0,0,0-1,4.3v2.23a7.14,7.14,0,0,0,1,4.16,3.58,3.58,0,0,0,3.11,1.39A3.56,3.56,0,0,0,22.62,30a7.69,7.69,0,0,0,1-4.36V23.48a7.2,7.2,0,0,0-1-4.19,3.64,3.64,0,0,0-3.12-1.36m2.15,7.71A5.68,5.68,0,0,1,21,28.85c-.12.17-.4.57-1.49.57S18.12,29,18,28.86a5.25,5.25,0,0,1-.66-3V23.64A5.47,5.47,0,0,1,18,20.5c.12-.17.4-.57,1.51-.57s1.4.4,1.51.55a5.23,5.23,0,0,1,.64,3Z" fill="currentColor"></path>
      <path d="M32.67,17.93a3.58,3.58,0,0,0-3.14,1.41,7.44,7.44,0,0,0-1,4.3v2.23a7.14,7.14,0,0,0,1,4.16,3.58,3.58,0,0,0,3.11,1.39A3.57,3.57,0,0,0,35.82,30a7.69,7.69,0,0,0,1-4.36V23.48a7.2,7.2,0,0,0-1-4.19,3.64,3.64,0,0,0-3.12-1.36m2.15,7.71a5.68,5.68,0,0,1-.64,3.21c-.12.17-.4.57-1.49.57s-1.37-.39-1.5-.56a5.25,5.25,0,0,1-.66-3V23.64a5.47,5.47,0,0,1,.63-3.14c.12-.17.4-.57,1.51-.57s1.4.4,1.51.55a5.23,5.23,0,0,1,.64,3Z" fill="currentColor"></path>
      <path d="M42.67,17.93a3.58,3.58,0,0,0-3.14,1.41,7.44,7.44,0,0,0-1,4.3v2.23a7.14,7.14,0,0,0,1,4.16,3.58,3.58,0,0,0,3.11,1.39A3.57,3.57,0,0,0,45.82,30a7.69,7.69,0,0,0,1-4.36V23.48a7.2,7.2,0,0,0-1-4.19,3.64,3.64,0,0,0-3.12-1.36m2.15,7.71a5.68,5.68,0,0,1-.64,3.21c-.12.17-.4.57-1.49.57s-1.37-.39-1.5-.56a5.25,5.25,0,0,1-.66-3V23.64a5.47,5.47,0,0,1,.63-3.14c.12-.17.4-.57,1.51-.57s1.4.4,1.51.55a5.23,5.23,0,0,1,.64,3Z" fill="currentColor"></path>
      <path d="M26.07,29.42a1,1,0,0,0,0,2,1,1,0,0,0,0-2" fill="currentColor"></path>
    </g>
  </symbol>
  <symbol xmlns="http://www.w3.org/2000/svg" xmlns:xlink="http://www.w3.org/1999/xlink" viewBox="0 0 50 50" id="ic_service8">
    <defs>
      <clipPath id="a">
        <rect width="50" height="50" fill="none"></rect>
      </clipPath>
    </defs>
    <g clip-path="url(#a)">
      <path d="M25,2A23,23,0,1,1,2,25,23,23,0,0,1,25,2m0-2A25,25,0,1,0,50,25,25,25,0,0,0,25,0" fill="currentColor"></path>
      <path d="M8.63,20.62A16.73,16.73,0,0,0,20.4,41.15H22l.11,0h.21a16.65,16.65,0,0,0,9.47-1.38,1,1,0,0,0,.49-1.33A1,1,0,0,0,31,38.37a14.74,14.74,0,1,1-2.35-27.59,15,15,0,0,1,2.38.86,1,1,0,0,0,1.33-.48l.06-.16a1,1,0,0,0-.54-1.17A18.3,18.3,0,0,0,30,9.11h-.88A16.73,16.73,0,0,0,8.63,20.62" fill="currentColor"></path>
    </g>
  </symbol>
  <symbol xmlns="http://www.w3.org/2000/svg" xmlns:xlink="http://www.w3.org/1999/xlink" viewBox="0 0 61.67 49.98" id="ic_service9">
    <defs>
      <clipPath id="a">
        <rect width="61.67" height="49.98" fill="none"></rect>
      </clipPath>
    </defs>
    <g clip-path="url(#a)">
      <path d="M56.06,45.27A3.6,3.6,0,0,1,59.55,48H28.43a3.62,3.62,0,0,1,3.5-2.71H56.06m0-2H31.93a5.61,5.61,0,0,0-5.61,5.61V50H61.67v-1.1a5.61,5.61,0,0,0-5.61-5.61" fill="currentColor"></path>
      <path d="M23.78,22l1.72,1.72L5.24,44.89a1.88,1.88,0,0,1-1.36.58,1.9,1.9,0,0,1-1.33-.55,1.88,1.88,0,0,1,0-2.69L23.78,22m0-2.8L1.2,40.78a3.88,3.88,0,1,0,5.48,5.49L28.3,23.66Z" fill="currentColor"></path>
      <path d="M26.33,7,40.49,21.14,33.14,28.5,19,14.33Zm0-2.83L16.14,14.33l17,17L43.32,21.14Z" fill="currentColor"></path>
      <path d="M24.76,2a1.11,1.11,0,0,1,.79.33l.51.51a1.11,1.11,0,0,1,0,1.58l-9.65,9.65a1.1,1.1,0,0,1-.79.32,1.12,1.12,0,0,1-.79-.32l-.51-.52a1.12,1.12,0,0,1,0-1.57L24,2.33A1.11,1.11,0,0,1,24.76,2m0-2a3.07,3.07,0,0,0-2.2.91l-9.65,9.65a3.11,3.11,0,0,0,0,4.41l.51.51a3.1,3.1,0,0,0,2.2.91,3.07,3.07,0,0,0,2.2-.91l9.66-9.65a3.12,3.12,0,0,0,0-4.4L27,.91A3.09,3.09,0,0,0,24.76,0" fill="currentColor"></path>
      <path d="M43.84,21.08a1.11,1.11,0,0,1,.79.33l.51.51a1.11,1.11,0,0,1,0,1.58l-9.65,9.65a1.1,1.1,0,0,1-1.57,0l-.52-.52a1.12,1.12,0,0,1,0-1.57l9.65-9.65a1.11,1.11,0,0,1,.79-.33m0-2a3.13,3.13,0,0,0-2.2.91L32,29.64a3.11,3.11,0,0,0,0,4.41l.51.51a3.1,3.1,0,0,0,4.41,0l9.65-9.65a3.12,3.12,0,0,0,0-4.4L46,20a3.13,3.13,0,0,0-2.2-.91" fill="currentColor"></path>
    </g>
  </symbol>
  <symbol xmlns="http://www.w3.org/2000/svg" xmlns:xlink="http://www.w3.org/1999/xlink" viewBox="0 0 67.48 50.49" id="ic_service10">
    <defs>
      <clipPath id="a">
        <rect width="67.48" height="50.49" fill="none"></rect>
      </clipPath>
    </defs>
    <g clip-path="url(#a)">
      <path d="M35.76.49h-4A38.62,38.62,0,0,0,20.26,2.84C19.66,1.53,19.13.49,19.13.49S18.27,2.2,17.48,4a35.26,35.26,0,0,0-5.59,3.3C10.4,3.73,8.51,0,8.51,0S3.34,10.2,3.34,13.06A5.13,5.13,0,0,0,4,15.58,25.94,25.94,0,0,0,0,27.17a12.08,12.08,0,0,1,6.91-1.93c4.34,0,8,1.82,8.77,4.23H16c.84-2.39,4.44-4.2,8.76-4.2a12.1,12.1,0,0,1,6.92,1.94h1V44.28a4.2,4.2,0,0,1-8.39.37h-2a6.21,6.21,0,0,0,12.41-.37V27.19h1a12.1,12.1,0,0,1,6.92-1.94c4.34,0,8,1.82,8.77,4.23h.36c.84-2.39,4.44-4.2,8.76-4.2a12.16,12.16,0,0,1,6.91,1.93C66.18,12.8,52.64,1.35,35.76.49M20,7.75a.87.87,0,0,1-1.74,0A11,11,0,0,1,19,5.53c0-.1.08-.19.12-.29,0,.07.05.13.08.19A11.38,11.38,0,0,1,20,7.75M5.34,13.06c0-1.1,1.44-4.74,3.17-8.47.64,1.39,1.24,2.76,1.74,4,.29.72.55,1.39.77,2a9.71,9.71,0,0,1,.66,2.49,3.17,3.17,0,0,1-6.29.55,3.31,3.31,0,0,1,0-.55m46.3,13.22a13.22,13.22,0,0,0-9-3,14.55,14.55,0,0,0-7.53,2l-2.83,0a14.54,14.54,0,0,0-7.52-1.94,13.32,13.32,0,0,0-8.93,3,13.22,13.22,0,0,0-9-3,16.31,16.31,0,0,0-4.31.57,24.07,24.07,0,0,1,2.81-6.63,5.15,5.15,0,0,0,8.27-4.12,13.34,13.34,0,0,0-1-3.8,31.12,31.12,0,0,1,3.77-2.43,4,4,0,0,0-.17.92,2.87,2.87,0,0,0,5.74,0,10.62,10.62,0,0,0-.93-3,36.31,36.31,0,0,1,10.7-2.21h3.94C50.07,3.24,62,12.16,64.89,23.85a16,16,0,0,0-4.32-.58,13.3,13.3,0,0,0-8.93,3" fill="currentColor"></path>
    </g>
  </symbol>
  <symbol xmlns="http://www.w3.org/2000/svg" xmlns:xlink="http://www.w3.org/1999/xlink" viewBox="0 0 57.39 50.01" id="ic_service11">
    <defs>
      <clipPath id="a">
        <rect width="57.39" height="50.01" fill="none"></rect>
      </clipPath>
    </defs>
    <g clip-path="url(#a)">
      <path d="M50.68,3.31h-21V1a1,1,0,0,0-2,0V3.31h-21A6.7,6.7,0,0,0,0,10V40a6.7,6.7,0,0,0,6.71,6.71h21V49a1,1,0,0,0,2,0V46.73h21A6.7,6.7,0,0,0,57.39,40V10a6.7,6.7,0,0,0-6.71-6.71M55.39,40a4.71,4.71,0,0,1-4.71,4.71h-21v-.86a1,1,0,0,0-2,0v.86h-21A4.71,4.71,0,0,1,2,40V10A4.71,4.71,0,0,1,6.71,5.31h21v.83a1,1,0,0,0,2,0V5.31h21A4.71,4.71,0,0,1,55.39,10Z" fill="currentColor"></path>
      <path d="M28.7,14.29a1,1,0,0,0-1,1v5.14a1,1,0,0,0,2,0V15.29a1,1,0,0,0-1-1" fill="currentColor"></path>
      <path d="M28.7,28.58a1,1,0,0,0-1,1v5.14a1,1,0,0,0,2,0V29.58a1,1,0,0,0-1-1" fill="currentColor"></path>
      <path d="M17.83,9.31H8.2A2.21,2.21,0,0,0,6,11.51v9.63a2.21,2.21,0,0,0,2.2,2.21h9.63A2.21,2.21,0,0,0,20,21.14V11.51a2.21,2.21,0,0,0-2.21-2.2M18,21.14a.21.21,0,0,1-.21.21H8.2a.2.2,0,0,1-.2-.21V11.51a.2.2,0,0,1,.2-.2h9.63a.2.2,0,0,1,.21.2Z" fill="currentColor"></path>
      <path d="M49.19,26.69H39.56a2.21,2.21,0,0,0-2.21,2.21v9.63a2.21,2.21,0,0,0,2.21,2.2h9.63a2.21,2.21,0,0,0,2.2-2.2V28.9a2.21,2.21,0,0,0-2.2-2.21m.2,11.84a.2.2,0,0,1-.2.2H39.56a.21.21,0,0,1-.21-.2V28.9a.22.22,0,0,1,.21-.21h9.63a.21.21,0,0,1,.2.21Z" fill="currentColor"></path>
    </g>
  </symbol>
  <symbol xmlns="http://www.w3.org/2000/svg" xmlns:xlink="http://www.w3.org/1999/xlink" viewBox="0 0 57.39 50.01" id="ic_service12">
    <defs>
      <clipPath id="a">
        <rect width="57.39" height="50.01" fill="none"></rect>
      </clipPath>
    </defs>
    <g clip-path="url(#a)">
      <path d="M11.38,8.71a1,1,0,0,0-1,1V26.54a1,1,0,0,0,2,0V9.71a1,1,0,0,0-1-1" fill="currentColor"></path>
      <path d="M22.92,8.71a1,1,0,0,0-1,1V26.54a1,1,0,0,0,2,0V9.71a1,1,0,0,0-1-1" fill="currentColor"></path>
      <path d="M34.47,8.71a1,1,0,0,0-1,1V26.54a1,1,0,0,0,2,0V9.71a1,1,0,0,0-1-1" fill="currentColor"></path>
      <path d="M46,8.71a1,1,0,0,0-1,1V26.54a1,1,0,0,0,2,0V9.71a1,1,0,0,0-1-1" fill="currentColor"></path>
      <path d="M40.59,34.27h0c-1.54,0-1.33,2.78-1.07,4,.42,2,1,3.9,1,3.9a.11.11,0,0,0,.08.08h0a.08.08,0,0,0,.07-.08s.58-1.91,1-3.9c.26-1.24.47-4-1.07-4" fill="currentColor"></path>
      <path d="M40.59,43.16a1,1,0,1,0,1,1,1,1,0,0,0-1-1" fill="currentColor"></path>
      <path d="M53.27,0H4.12A4.13,4.13,0,0,0,0,4.12v28a4.13,4.13,0,0,0,4.12,4.12H32.85L26.16,46.57A2.65,2.65,0,0,0,25.65,49a1.68,1.68,0,0,0,1.29,1l.25,0H54l.3-.06a1.64,1.64,0,0,0,1.24-1A2.65,2.65,0,0,0,55,46.57l-6.7-10.32h5a4.12,4.12,0,0,0,4.12-4.12v-28A4.12,4.12,0,0,0,53.27,0m.08,47.68.19.33H27.63a4,4,0,0,1,.21-.35l7.4-11.41,1.3-2,4-6.24,4.05,6.24,1.3,2Zm2-15.55a2.12,2.12,0,0,1-2.12,2.12H47l-5.21-8a1.47,1.47,0,0,0-1.13-.72h-.2a1.46,1.46,0,0,0-1.12.72l-5.21,8h-30A2.12,2.12,0,0,1,2,32.13v-28A2.12,2.12,0,0,1,4.12,2H53.27a2.12,2.12,0,0,1,2.12,2.12Z" fill="currentColor"></path>
    </g>
  </symbol>
  <symbol xmlns="http://www.w3.org/2000/svg" xmlns:xlink="http://www.w3.org/1999/xlink" viewBox="0 0 66.48 50" id="ic_service13">
    <defs>
      <clipPath id="a">
        <rect width="66.48" height="50" fill="none"></rect>
      </clipPath>
    </defs>
    <g clip-path="url(#a)">
      <path d="M33.24,28.44A8.53,8.53,0,1,0,41.77,37a8.53,8.53,0,0,0-8.53-8.53m0,15.06A6.53,6.53,0,1,1,39.77,37a6.54,6.54,0,0,1-6.53,6.53" fill="currentColor"></path>
      <path d="M15.92,15.58a1,1,0,0,0-1,1V27.42a1,1,0,0,0,2,0V16.58a1,1,0,0,0-1-1" fill="currentColor"></path>
      <path d="M27.47,11.28a1,1,0,0,0-1,1v7.83a1,1,0,0,0,2,0V12.28a1,1,0,0,0-1-1" fill="currentColor"></path>
      <path d="M39,11.28a1,1,0,0,0-1,1v7.83a1,1,0,0,0,2,0V12.28a1,1,0,0,0-1-1" fill="currentColor"></path>
      <path d="M50.55,15.58a1,1,0,0,0-1,1V27.42a1,1,0,0,0,2,0V16.58a1,1,0,0,0-1-1" fill="currentColor"></path>
      <path d="M62.32,33.62v-.38A29.1,29.1,0,0,0,41.46,5.34,6.23,6.23,0,0,0,35.32,0H31.16A6.23,6.23,0,0,0,25,5.34,29.13,29.13,0,0,0,4.15,33.24v.38A6.22,6.22,0,0,0,6.23,45.7H23.59a13,13,0,0,0,19.3,0H60.24a6.21,6.21,0,0,0,2.08-12.08M33.24,48a11,11,0,0,1-6.72-2.3,11.14,11.14,0,0,1-2-2A10.92,10.92,0,0,1,22.2,37,11,11,0,1,1,42,43.7a11.19,11.19,0,0,1-2,2A10.93,10.93,0,0,1,33.24,48m27-4.3H44.38a13,13,0,1,0-22.28,0H6.24a4.21,4.21,0,0,1-1.41-8.19L6.15,35V33.24a27.27,27.27,0,0,1,19.44-26l1.22-.36L27,5.63A4.2,4.2,0,0,1,31.16,2h4.15a4.2,4.2,0,0,1,4.17,3.63l.18,1.27,1.23.36a27.25,27.25,0,0,1,19.43,26V35l1.33.48a4.21,4.21,0,0,1-1.41,8.19" fill="currentColor"></path>
    </g>
  </symbol>
  <symbol xmlns="http://www.w3.org/2000/svg" xmlns:xlink="http://www.w3.org/1999/xlink" viewBox="0 0 68.4 50" id="ic_service14">
    <defs>
      <clipPath id="a">
        <rect width="68.4" height="50" fill="none"></rect>
      </clipPath>
    </defs>
    <g clip-path="url(#a)">
      <path d="M55.26,12.78h-.07a16.23,16.23,0,0,0-31.76.14A13,13,0,0,0,8.61,23.65a8.49,8.49,0,0,0-.88,0,7.73,7.73,0,0,0,0,15.46h20L21.48,50,33.64,39.06H55.26a13.14,13.14,0,1,0,0-26.28M29.36,40.22,30,39.06l1.14-2,3-5.24,1.7-3H27.93L35,16.4h9l-4.75,7.92-1.81,3h6.17L32.87,37.06l-2.22,2Zm25.9-3.16H35.86l13-11.7H41l6.57-11H33.85L24.49,30.83h7.92l-3.55,6.23H7.73a5.73,5.73,0,0,1,0-11.46,5.4,5.4,0,0,1,.66,0l1.87.22L10.58,24a11.11,11.11,0,0,1,11-9.22,10.82,10.82,0,0,1,1.6.13l1.87.27.38-1.84a14.23,14.23,0,0,1,27.84-.13l.35,1.58h1.73a11.14,11.14,0,0,1-.05,22.28" fill="currentColor"></path>
    </g>
  </symbol>
  <symbol xmlns="http://www.w3.org/2000/svg" xmlns:xlink="http://www.w3.org/1999/xlink" viewBox="0 0 49.63 50" id="ic_service15">
    <defs>
      <clipPath id="a">
        <rect width="49.63" height="50" fill="none"></rect>
      </clipPath>
    </defs>
    <g clip-path="url(#a)">
      <path d="M26.65,32a7,7,0,1,0,7,7,7,7,0,0,0-7-7m0,12a5,5,0,1,1,5-5,5,5,0,0,1-5,5" fill="currentColor"></path>
      <path d="M26.65,35.59A3.43,3.43,0,1,0,30.08,39a3.43,3.43,0,0,0-3.43-3.43m0,4.86A1.43,1.43,0,1,1,28.08,39a1.44,1.44,0,0,1-1.43,1.43" fill="currentColor"></path>
      <path d="M45.51,0H4.12A4.13,4.13,0,0,0,0,4.12V45.88A4.13,4.13,0,0,0,4.12,50H45.51a4.12,4.12,0,0,0,4.12-4.12V4.12A4.12,4.12,0,0,0,45.51,0M16.12,48h-12A2.12,2.12,0,0,1,2,45.88V4.12A2.12,2.12,0,0,1,4.12,2H33.51a2.12,2.12,0,0,1,2.12,2.12V45.88A2.12,2.12,0,0,1,33.51,48Zm31.51-2.12A2.12,2.12,0,0,1,45.51,48H37a4.12,4.12,0,0,0,.6-2.12V4.12A4.12,4.12,0,0,0,37,2h8.48a2.12,2.12,0,0,1,2.12,2.12Z" fill="currentColor"></path>
      <path d="M8.41,9.75H29.24a1,1,0,0,0,0-2H8.41a1,1,0,0,0,0,2" fill="currentColor"></path>
      <path d="M8.41,16.42H19.24a1,1,0,0,0,0-2H8.41a1,1,0,0,0,0,2" fill="currentColor"></path>
      <path d="M8.41,23.08H24.24a1,1,0,0,0,0-2H8.41a1,1,0,0,0,0,2" fill="currentColor"></path>
      <path d="M20.24,28.75a1,1,0,0,0-1-1H8.41a1,1,0,1,0,0,2H19.24a1,1,0,0,0,1-1" fill="currentColor"></path>
    </g>
  </symbol>
  <symbol xmlns="http://www.w3.org/2000/svg" xmlns:xlink="http://www.w3.org/1999/xlink" viewBox="0 0 60 50" id="ic_service16">
    <defs>
      <clipPath id="a">
        <rect width="60" height="50" fill="none"></rect>
      </clipPath>
    </defs>
    <g clip-path="url(#a)">
      <path d="M57.5,15.13H42.77a2.5,2.5,0,0,0-2.5,2.5V24H10.87V19.73h6.36a2.5,2.5,0,0,0,2.5-2.5V2.5A2.5,2.5,0,0,0,17.23,0H2.5A2.5,2.5,0,0,0,0,2.5V17.23a2.5,2.5,0,0,0,2.5,2.5H8.87V30.27H2.5A2.5,2.5,0,0,0,0,32.77V47.5A2.5,2.5,0,0,0,2.5,50H17.23a2.5,2.5,0,0,0,2.5-2.5V32.77a2.5,2.5,0,0,0-2.5-2.5H10.87V26h29.4v6.37a2.5,2.5,0,0,0,2.5,2.5H57.5a2.5,2.5,0,0,0,2.5-2.5V17.63a2.5,2.5,0,0,0-2.5-2.5M2,17.23V2.5A.5.5,0,0,1,2.5,2H17.23a.5.5,0,0,1,.5.5V17.23a.5.5,0,0,1-.5.5H2.5a.5.5,0,0,1-.5-.5M17.73,32.77V47.5a.5.5,0,0,1-.5.5H2.5a.5.5,0,0,1-.5-.5V32.77a.5.5,0,0,1,.5-.5H17.23a.5.5,0,0,1,.5.5M58,32.37a.5.5,0,0,1-.5.5H42.77a.5.5,0,0,1-.5-.5V17.63a.5.5,0,0,1,.5-.5H57.5a.5.5,0,0,1,.5.5Z" fill="currentColor"></path>
    </g>
  </symbol>
  <symbol xmlns="http://www.w3.org/2000/svg" xmlns:xlink="http://www.w3.org/1999/xlink" viewBox="0 0 23.85 20" id="ic_telegram">
    <path d="M23.78,1.82l-3.6,17c-.27,1.2-1,1.5-2,.93l-5.49-4-2.64,2.55A1.41,1.41,0,0,1,9,18.77l.4-5.59L19.52,4c.44-.4-.1-.61-.69-.22L6.27,11.69.86,10c-1.17-.37-1.2-1.18.25-1.74L22.26.11c1-.37,1.84.21,1.52,1.71" fill="currentColor"></path>
  </symbol>
  <symbol xmlns="http://www.w3.org/2000/svg" xmlns:xlink="http://www.w3.org/1999/xlink" viewBox="0 0 17.31 17.31" id="ic_time">
    <defs>
      <clipPath id="a">
        <rect width="17.31" height="17.31" fill="none"></rect>
      </clipPath>
    </defs>
    <line x1="8.65" y1="8.65" x2="14.06" y2="8.65" fill="none" stroke="currentColor" stroke-linecap="round" stroke-linejoin="round"></line>
    <line x1="8.65" y1="3.24" x2="8.65" y2="8.65" fill="none" stroke="currentColor" stroke-linecap="round" stroke-linejoin="round"></line>
    <g clip-path="url(#a)">
      <path d="M8.65,1A7.65,7.65,0,1,1,1,8.65,7.66,7.66,0,0,1,8.65,1m0-1a8.65,8.65,0,1,0,8.66,8.65A8.65,8.65,0,0,0,8.65,0" fill="currentColor"></path>
    </g>
  </symbol>
  <symbol xmlns="http://www.w3.org/2000/svg" viewBox="0 0 19.78 21" id="ic_video_play">
    <path d="M1,10.5V1.66L17.65,10.5,1,19.34ZM0,0V21L19.78,10.5Z" fill="currentColor"></path>
  </symbol>
  <symbol xmlns="http://www.w3.org/2000/svg" xmlns:xlink="http://www.w3.org/1999/xlink" viewBox="0 0 30.02 18" id="ic_vk">
    <path d="M16,18c1,0,1-1.44,1-2a2.15,2.15,0,0,1,2-2c1,0,2.71,1.72,4,3,1,1,1,1,2,1h3a2,2,0,0,0,2-2c0-.62-.68-1.68-3-4-2-2-3-1,0-5,1.85-2.46,3.19-4.68,3-5.32S24.63.09,24,1a36.72,36.72,0,0,0-3,5c-1,2-1.1,3-2,3s-1-1.94-1-3c0-3.31.48-5.64-1-6H14a5.81,5.81,0,0,0-3,1S9.79,2,10,2s2-.42,2,1V5s0,4-1,4S8,5,6,2C5.25.82,5,1,4,1S2,1,1,1s-1.13.64-1,1c2,5,3.44,8.14,7.23,12.09,3.49,3.63,5.81,3.82,7.76,3.9.5,0,0,0,1,0" fill="currentColor"></path>
  </symbol>
  <symbol xmlns="http://www.w3.org/2000/svg" xmlns:xlink="http://www.w3.org/1999/xlink" viewBox="0 0 19.9 20" id="ic_whatsapp">
    <path d="M17,2.91A9.8,9.8,0,0,0,10,0,9.91,9.91,0,0,0,1.41,14.87L0,20l5.25-1.38A9.91,9.91,0,0,0,10,19.83h0A9.92,9.92,0,0,0,19.9,9.92a9.77,9.77,0,0,0-2.9-7M14.84,13.45a2.52,2.52,0,0,1-1.67,1.18,3.43,3.43,0,0,1-1.56-.1A12.1,12.1,0,0,1,10.2,14,11,11,0,0,1,6,10.27,4.82,4.82,0,0,1,5,7.71a2.82,2.82,0,0,1,.86-2.07,1,1,0,0,1,.67-.31H7c.15,0,.36-.06.56.43s.7,1.71.76,1.84A.46.46,0,0,1,8.3,8a1.46,1.46,0,0,1-.25.41c-.12.15-.26.33-.37.44s-.25.25-.11.5A7.87,7.87,0,0,0,9,11.11a7.19,7.19,0,0,0,2,1.23c.25.12.39.1.54-.07s.62-.72.78-1,.33-.2.56-.12,1.44.68,1.69.81.42.18.48.28a2.08,2.08,0,0,1-.15,1.18" fill="currentColor" fill-rule="evenodd"></path>
  </symbol>
  <symbol xmlns="http://www.w3.org/2000/svg" viewBox="0 0 31.85 31.85" id="ic_zoom">
    <polygon points="22.85 0 22.85 1 30.15 1 17 14.15 17.71 14.85 30.85 1.71 30.85 9 31.85 9 31.85 0 22.85 0" fill="currentColor"></polygon>
    <polygon points="17 17.71 30.15 30.85 22.85 30.85 22.85 31.85 31.85 31.85 31.85 22.85 30.85 22.85 30.85 30.15 17.71 17 17 17.71" fill="currentColor"></polygon>
    <polygon points="0 0 0 9 1 9 1 1.71 14.15 14.85 14.85 14.15 1.71 1 9 1 9 0 0 0" fill="currentColor"></polygon>
    <polygon points="1 30.15 1 22.85 0 22.85 0 31.85 9 31.85 9 30.85 1.71 30.85 14.85 17.71 14.15 17 1 30.15" fill="currentColor"></polygon>
  </symbol>
</svg>